<svg width="70" height="70" viewBox="0 0 70 70" fill="none" xmlns="http://www.w3.org/2000/svg">
<g clip-path="url(#clip0_111_1269)">
<rect width="70" height="70" rx="35" fill="#368721"/>
<path d="M62.2594 48.8796H36.96C36.7426 48.8793 36.5341 48.7927 36.3803 48.6389C36.2266 48.4852 36.14 48.2767 36.1396 48.0592V11.2C36.1404 10.9828 36.2271 10.7747 36.3808 10.6212C36.5346 10.4678 36.7428 10.3814 36.96 10.381H62.2594C62.4767 10.3814 62.6849 10.4678 62.8387 10.6212C62.9924 10.7747 63.0791 10.9828 63.0799 11.2V48.0592C63.0795 48.2767 62.9929 48.4852 62.8392 48.6389C62.6854 48.7927 62.4769 48.8793 62.2594 48.8796ZM36.96 10.416C36.8566 10.4153 36.7539 10.435 36.6581 10.4741C36.5622 10.5131 36.4751 10.5707 36.4016 10.6436C36.3281 10.7165 36.2697 10.8031 36.2298 10.8986C36.1899 10.9941 36.1692 11.0965 36.169 11.2V48.0592C36.169 48.2675 36.2518 48.4673 36.3991 48.6146C36.5464 48.7619 36.7461 48.8446 36.9544 48.8446H62.2594C62.4677 48.8446 62.6675 48.7619 62.8148 48.6146C62.9621 48.4673 63.0449 48.2675 63.0449 48.0592V11.2C63.0449 10.9917 62.9621 10.792 62.8148 10.6447C62.6675 10.4974 62.4677 10.4146 62.2594 10.4146L36.96 10.416Z" fill="#F0F0F0"/>
<path d="M33.0795 48.8796H7.7745C7.55703 48.8792 7.34857 48.7927 7.1948 48.6389C7.04103 48.4851 6.95447 48.2766 6.9541 48.0592V11.2C6.95447 10.9825 7.04103 10.7741 7.1948 10.6203C7.34857 10.4665 7.55703 10.3799 7.7745 10.3796H33.0795C33.297 10.3799 33.5054 10.4665 33.6592 10.6203C33.813 10.7741 33.8995 10.9825 33.8999 11.2V48.0592C33.8995 48.2766 33.813 48.4851 33.6592 48.6389C33.5054 48.7927 33.297 48.8792 33.0795 48.8796ZM7.7745 10.416C7.56644 10.416 7.36689 10.4985 7.21963 10.6455C7.07238 10.7925 6.98947 10.9919 6.9891 11.2V48.0592C6.9891 48.2675 7.07185 48.4672 7.21914 48.6145C7.36643 48.7618 7.5662 48.8446 7.7745 48.8446H33.0795C33.2878 48.8446 33.4876 48.7618 33.6349 48.6145C33.7822 48.4672 33.8649 48.2675 33.8649 48.0592V11.2C33.8649 10.9917 33.7822 10.7919 33.6349 10.6446C33.4876 10.4973 33.2878 10.4146 33.0795 10.4146L7.7745 10.416Z" fill="#F0F0F0"/>
<path d="M70.1108 57.4294H0.11084V57.4644H70.1108V57.4294Z" fill="#E0E0E0"/>
<path d="M32.4033 11.8622H18.6973V25.5682H32.4033V11.8622Z" fill="#E6E6E6"/>
<path d="M31.709 24.8752V12.5566H19.3918V24.8752H31.709Z" fill="#FAFAFA"/>
<path d="M24.7241 22.0765C24.7241 22.0765 26.9865 17.4397 31.7087 17.3459V24.8737H25.5487L24.7241 22.0765Z" fill="#F0F0F0"/>
<path d="M19.3916 20.7746C19.3916 20.7746 21.4258 19.7092 23.4922 20.4946C26.0878 21.4746 27.5942 24.8766 27.5942 24.8766H19.3916V20.7746Z" fill="#F5F5F5"/>
<path d="M23.9621 18.6068C25.1467 18.4155 25.9521 17.3001 25.7608 16.1155C25.5696 14.9308 24.4542 14.1255 23.2695 14.3167C22.0849 14.5079 21.2795 15.6233 21.4708 16.808C21.662 17.9927 22.7774 18.798 23.9621 18.6068Z" fill="white"/>
<path d="M49.633 11.7908H37.6084V35.0686H49.633V11.7908Z" fill="#E6E6E6"/>
<path d="M48.9385 34.3756V12.4852H38.3013V34.3756H48.9385Z" fill="#FAFAFA"/>
<path d="M44.1494 19.4828C44.2674 18.2886 43.3949 17.2249 42.2007 17.107C41.0065 16.9891 39.9428 17.8615 39.8249 19.0557C39.7069 20.2499 40.5794 21.3136 41.7736 21.4316C42.9678 21.5495 44.0315 20.677 44.1494 19.4828Z" fill="white"/>
<path d="M40.291 34.3756C40.291 34.3756 42.9804 21.4312 48.9388 20.2692V34.3756H40.291Z" fill="#F0F0F0"/>
<path d="M38.3013 26.6938C38.3013 26.6938 39.6719 25.3722 41.8433 26.1618C45.9229 27.6458 48.1993 34.3756 48.1993 34.3756H38.3013V26.6938Z" fill="#F5F5F5"/>
<path d="M9.58337 50.2781C9.58337 50.2781 8.57117 50.5665 7.45537 49.1203C6.64757 48.0745 5.21537 45.8429 3.25537 45.8037C3.25537 45.8037 5.59477 44.7901 7.65837 45.8233C9.72197 46.8565 10.8238 49.5277 9.59037 50.2781" fill="#F5F5F5"/>
<path d="M10.1864 54.4698C10.1776 54.4694 10.1689 54.4673 10.1609 54.4636C10.1529 54.4599 10.1457 54.4546 10.1397 54.4481C10.1337 54.4416 10.1291 54.434 10.1261 54.4257C10.123 54.4174 10.1217 54.4086 10.122 54.3998C10.1507 53.3966 10.0798 52.393 9.91063 51.4038C9.66003 49.9464 9.05103 48.02 7.62303 47.138C7.60803 47.1285 7.5974 47.1134 7.59347 47.0961C7.58953 47.0788 7.59261 47.0606 7.60203 47.0456C7.6066 47.0382 7.61259 47.0318 7.61965 47.0268C7.62671 47.0217 7.63469 47.0181 7.64315 47.0161C7.65161 47.0142 7.66037 47.0139 7.66893 47.0154C7.67749 47.0168 7.68568 47.02 7.69303 47.0246C8.34403 47.4278 8.88443 48.069 9.29743 48.93C9.65448 49.7093 9.90409 50.5335 10.0394 51.38C10.2095 52.3786 10.2813 53.3914 10.2536 54.404C10.2529 54.4215 10.2456 54.438 10.2331 54.4502C10.2206 54.4625 10.2039 54.4695 10.1864 54.4698Z" fill="#E0E0E0"/>
<path d="M10.3507 47.0918C10.3507 47.0918 11.3755 46.8524 11.6471 45.045C11.8445 43.7388 12.0083 41.0942 13.7121 40.1044C13.7121 40.1044 11.1753 40.355 9.87327 42.259C8.57127 44.163 8.90727 47.0358 10.3507 47.0918Z" fill="#F5F5F5"/>
<path d="M11.7601 54.5874C11.7465 54.5874 11.7331 54.5833 11.7219 54.5755C11.7106 54.5678 11.702 54.5568 11.6971 54.544C11.2203 53.1763 10.8276 51.7807 10.5211 50.365C10.2516 49.1574 10.0816 47.9296 10.0129 46.6942C9.95413 45.3334 10.0885 44.205 10.4161 43.3342C10.4184 43.3249 10.4226 43.3163 10.4285 43.3088C10.4344 43.3013 10.4418 43.2952 10.4502 43.2907C10.4587 43.2863 10.4679 43.2838 10.4774 43.2832C10.487 43.2826 10.4965 43.2841 10.5054 43.2875C10.5143 43.2909 10.5223 43.2962 10.529 43.3029C10.5358 43.3097 10.541 43.3178 10.5443 43.3267C10.5476 43.3356 10.5491 43.3451 10.5484 43.3546C10.5478 43.3641 10.5452 43.3734 10.5407 43.3818C9.81413 45.3082 10.2005 48.2244 10.6527 50.3328C10.9572 51.7424 11.3481 53.132 11.8231 54.4936C11.829 54.5103 11.828 54.5287 11.8204 54.5446C11.8128 54.5606 11.7992 54.573 11.7825 54.579C11.7757 54.5832 11.7681 54.586 11.7601 54.5874Z" fill="#E0E0E0"/>
<path d="M12.1424 47.9766C12.1424 47.9766 13.1854 48.1166 14.0856 46.529C14.7366 45.3796 15.8356 42.9688 17.7816 42.6524C17.7816 42.6524 15.3232 41.9804 13.4248 43.2936C11.5264 44.6068 10.8152 47.4082 12.1424 47.9766Z" fill="#F5F5F5"/>
<path d="M12.302 54.5874C12.2866 54.5874 12.2717 54.5821 12.2597 54.5724C12.2477 54.5628 12.2394 54.5493 12.2362 54.5342C12.0101 53.2537 11.8916 51.9565 11.882 50.6562C11.8631 49.5458 11.9706 48.4369 12.2026 47.3508C12.4826 46.1496 12.9292 45.1892 13.5466 44.4948C13.5522 44.4873 13.5593 44.4811 13.5674 44.4765C13.5756 44.4719 13.5846 44.469 13.5939 44.4681C13.6032 44.4672 13.6126 44.4682 13.6215 44.4711C13.6303 44.4741 13.6385 44.4788 13.6455 44.4851C13.6524 44.4913 13.658 44.499 13.6618 44.5075C13.6656 44.516 13.6676 44.5253 13.6677 44.5346C13.6677 44.544 13.6658 44.5532 13.6621 44.5618C13.6584 44.5704 13.6529 44.5781 13.646 44.5844C12.281 46.1244 12.0052 48.7326 12.015 50.6562C12.0237 51.9477 12.1417 53.2361 12.3678 54.5076C12.3711 54.525 12.3673 54.5431 12.3574 54.5578C12.3474 54.5725 12.332 54.5826 12.3146 54.586L12.302 54.5874Z" fill="#E0E0E0"/>
<path d="M13.9329 50.4098C13.9329 50.4098 14.9269 50.7556 16.1267 49.3766C16.9919 48.3798 18.5487 46.235 20.5185 46.312C20.5185 46.312 18.2421 45.164 16.1211 46.074C14.0001 46.984 12.7457 49.588 13.9329 50.414" fill="#F5F5F5"/>
<path d="M12.9657 54.5874C12.9485 54.5874 12.932 54.5807 12.9197 54.5686C12.9074 54.5566 12.9003 54.5402 12.8999 54.523C12.9013 53.6098 13.0137 52.7001 13.2345 51.814C13.431 50.9834 13.738 50.183 14.1473 49.434C14.6065 48.5909 15.2381 47.8539 16.0009 47.271C16.0153 47.2608 16.0331 47.2566 16.0506 47.2592C16.0681 47.2618 16.0839 47.271 16.0947 47.285C16.1054 47.2991 16.1101 47.3169 16.1077 47.3345C16.1054 47.3521 16.0962 47.368 16.0821 47.3788C14.4385 48.6122 13.7021 50.4868 13.3647 51.842C13.1474 52.7163 13.036 53.6137 13.0329 54.5146C13.0333 54.5322 13.0268 54.5492 13.0147 54.562C13.0027 54.5749 12.9861 54.5825 12.9685 54.5832L12.9657 54.5874Z" fill="#E0E0E0"/>
<path d="M15.3472 54.4264L14.3994 57.4154H9.25584L8.30664 54.4264H15.3472Z" fill="#E0E0E0"/>
<path d="M16.5621 33.6098H16.7833V33.3885H10.7801C10.5889 33.3885 10.4055 33.4645 10.2703 33.5997C10.135 33.7349 10.0591 33.9183 10.0591 34.1095C10.0591 34.3008 10.135 34.4842 10.2703 34.6194C10.4055 34.7546 10.5889 34.8305 10.7801 34.8305H16.7833V34.6093H16.5621V33.6098Z" fill="#F0F0F0"/>
<path d="M16.5625 33.6097V34.6093H11.0605C10.9296 34.6075 10.8049 34.5539 10.7136 34.4602C10.6222 34.3665 10.5718 34.2404 10.5733 34.1095C10.5719 33.9781 10.6222 33.8514 10.7133 33.7567C10.7581 33.71 10.8121 33.6728 10.8717 33.6475C10.9314 33.6222 10.9957 33.6094 11.0605 33.6097H16.5625Z" fill="white"/>
<path d="M16.562 33.8632V34.02H11.2C11.1799 34.02 11.1605 34.012 11.1461 33.9979C11.1317 33.9838 11.1234 33.9645 11.123 33.9444C11.1234 33.9242 11.1317 33.905 11.1461 33.8908C11.1605 33.8767 11.1799 33.8688 11.2 33.8688L16.562 33.8632Z" fill="#F0F0F0"/>
<path d="M16.562 34.2398V34.3924H11.2C11.1796 34.3924 11.16 34.3843 11.1456 34.3699C11.1312 34.3554 11.123 34.3358 11.123 34.3154C11.1234 34.2952 11.1317 34.276 11.1461 34.2619C11.1605 34.2477 11.1799 34.2398 11.2 34.2398H16.562Z" fill="#F0F0F0"/>
<path d="M15.6563 32.1678H15.8789V31.9466H9.87432C9.6831 31.9466 9.49971 32.0226 9.3645 32.1578C9.22928 32.293 9.15332 32.4764 9.15332 32.6676C9.15332 32.8588 9.22928 33.0422 9.3645 33.1774C9.49971 33.3126 9.6831 33.3886 9.87432 33.3886H15.8789V33.166H15.6563V32.1678Z" fill="#E0E0E0"/>
<path d="M15.6564 32.1678V33.166H10.1474C10.0826 33.1654 10.0186 33.1521 9.95902 33.1267C9.89942 33.1013 9.84544 33.0644 9.80016 33.0181C9.75488 32.9718 9.71921 32.917 9.69519 32.8568C9.67117 32.7967 9.65928 32.7324 9.66021 32.6676C9.65949 32.5359 9.70964 32.409 9.80021 32.3134C9.84556 32.2685 9.89934 32.2331 9.95844 32.209C10.0175 32.185 10.0808 32.1729 10.1446 32.1734L15.6564 32.1678Z" fill="white"/>
<path d="M15.6566 32.4198V32.5738H10.2904C10.2703 32.5734 10.251 32.5652 10.2369 32.5508C10.2228 32.5364 10.2148 32.517 10.2148 32.4968C10.2148 32.4766 10.2228 32.4572 10.2369 32.4428C10.251 32.4284 10.2703 32.4202 10.2904 32.4198H15.6566Z" fill="#F0F0F0"/>
<path d="M15.6566 32.7964V32.949H10.2904C10.2704 32.949 10.2512 32.941 10.237 32.9268C10.2228 32.9127 10.2148 32.8934 10.2148 32.8734C10.2148 32.8532 10.2228 32.8338 10.2369 32.8194C10.251 32.805 10.2703 32.7968 10.2904 32.7964H15.6566Z" fill="#F0F0F0"/>
<path d="M23.1268 34.8334H8.42676V35.812H23.1268V34.8334Z" fill="#E6E6E6"/>
<path d="M11.1793 36.8046V35.812H9.9585L10.4065 36.8046H11.1793Z" fill="#E0E0E0"/>
<path d="M20.0845 36.8046V35.812H21.3067L20.8587 36.8046H20.0845Z" fill="#E0E0E0"/>
<path d="M11.8834 12.5566H8.02637V14H11.8834V12.5566Z" fill="#F5F5F5"/>
<path d="M16.2725 12.5566H12.4155V14H16.2725V12.5566Z" fill="#F5F5F5"/>
<path d="M14.066 14.4466H10.209V15.89H14.066V14.4466Z" fill="#F5F5F5"/>
<path d="M57.855 30.989H53.998V32.4324H57.855V30.989Z" fill="#F5F5F5"/>
<path d="M62.2442 30.989H58.3872V32.4324H62.2442V30.989Z" fill="#F5F5F5"/>
<path d="M60.0377 32.879H56.1807V34.3224H60.0377V32.879Z" fill="#F5F5F5"/>
<path d="M61.3243 11.8622H57.4673V13.3056H61.3243V11.8622Z" fill="#F5F5F5"/>
<path d="M59.1182 13.7522H55.2612V15.1956H59.1182V13.7522Z" fill="#F5F5F5"/>
<path d="M65.0442 62.2062H7.27175C7.22273 62.2064 7.17415 62.1969 7.12881 62.1783C7.08347 62.1596 7.04225 62.1322 7.00752 62.0976C6.97279 62.063 6.94523 62.0219 6.92643 61.9767C6.90763 61.9314 6.89795 61.8828 6.89795 61.8338C6.89777 61.7847 6.90731 61.736 6.92603 61.6906C6.94475 61.6451 6.97228 61.6038 7.00702 61.5691C7.04177 61.5343 7.08305 61.5068 7.12849 61.4881C7.17392 61.4694 7.22261 61.4598 7.27175 61.46H65.0442C65.1433 61.46 65.2384 61.4994 65.3085 61.5695C65.3786 61.6396 65.4179 61.7347 65.4179 61.8338C65.4176 61.9327 65.378 62.0274 65.308 62.0972C65.2379 62.167 65.143 62.2062 65.0442 62.2062Z" fill="#263238"/>
<path opacity="0.9" d="M65.0442 62.2062H7.27175C7.22273 62.2064 7.17415 62.1969 7.12881 62.1783C7.08347 62.1596 7.04225 62.1322 7.00752 62.0976C6.97279 62.063 6.94523 62.0219 6.92643 61.9767C6.90763 61.9314 6.89795 61.8828 6.89795 61.8338C6.89777 61.7847 6.90731 61.736 6.92603 61.6906C6.94475 61.6451 6.97228 61.6038 7.00702 61.5691C7.04177 61.5343 7.08305 61.5068 7.12849 61.4881C7.17392 61.4694 7.22261 61.4598 7.27175 61.46H65.0442C65.1433 61.46 65.2384 61.4994 65.3085 61.5695C65.3786 61.6396 65.4179 61.7347 65.4179 61.8338C65.4176 61.9327 65.378 62.0274 65.308 62.0972C65.2379 62.167 65.143 62.2062 65.0442 62.2062Z" fill="white"/>
<path d="M64.5514 62.2104H7.76465C7.77481 62.4182 7.86682 62.6135 8.02056 62.7536C8.1743 62.8937 8.37725 62.9672 8.58505 62.9581H63.731C63.9388 62.9672 64.1418 62.8937 64.2955 62.7536C64.4493 62.6135 64.5413 62.4182 64.5514 62.2104Z" fill="#263238"/>
<path opacity="0.8" d="M64.5514 62.2104H7.76465C7.77481 62.4182 7.86682 62.6135 8.02056 62.7536C8.1743 62.8937 8.37725 62.9672 8.58505 62.9581H63.731C63.9388 62.9672 64.1418 62.8937 64.2955 62.7536C64.4493 62.6135 64.5413 62.4182 64.5514 62.2104Z" fill="white"/>
<path d="M55.9414 22.3902V22.449C55.9339 22.4488 55.9266 22.4471 55.9199 22.4441C55.9131 22.441 55.9071 22.4365 55.9021 22.431C55.8971 22.4255 55.8933 22.4191 55.8909 22.412C55.8885 22.405 55.8876 22.3976 55.8882 22.3902C55.8896 22.3741 55.897 22.3591 55.9089 22.3482C55.9208 22.3373 55.9364 22.3313 55.9526 22.3314C56.2146 22.3313 56.4752 22.294 56.7268 22.2208C56.7341 22.2184 56.7419 22.2176 56.7496 22.2183C56.7572 22.219 56.7647 22.2212 56.7715 22.2249C56.7783 22.2286 56.7843 22.2336 56.7891 22.2396C56.7939 22.2456 56.7975 22.2526 56.7996 22.26C56.8019 22.2673 56.8028 22.2751 56.8021 22.2828C56.8014 22.2905 56.7991 22.2979 56.7954 22.3047C56.7918 22.3115 56.7868 22.3175 56.7808 22.3223C56.7747 22.3271 56.7678 22.3307 56.7604 22.3328C56.498 22.4099 56.226 22.4491 55.9526 22.449L55.9414 22.3902ZM55.135 22.33C54.8729 22.2518 54.6235 22.1363 54.3944 21.987C54.3878 21.9829 54.3822 21.9775 54.3777 21.9712C54.3733 21.9648 54.3701 21.9577 54.3684 21.9502C54.3667 21.9426 54.3666 21.9348 54.3679 21.9272C54.3692 21.9196 54.372 21.9123 54.3762 21.9058C54.385 21.8927 54.3986 21.8837 54.414 21.8805C54.4295 21.8774 54.4455 21.8804 54.4588 21.889C54.6786 22.0316 54.9176 22.1424 55.1686 22.218C55.1834 22.2225 55.1958 22.2327 55.2031 22.2463C55.2105 22.26 55.2121 22.2759 55.2078 22.2908C55.204 22.3027 55.1965 22.3132 55.1865 22.3208C55.1765 22.3283 55.1643 22.3325 55.1518 22.3328L55.135 22.33ZM57.4212 21.98C57.4168 21.9735 57.4139 21.9662 57.4124 21.9586C57.411 21.9509 57.4111 21.9431 57.4128 21.9355C57.4145 21.9279 57.4178 21.9207 57.4223 21.9144C57.4269 21.9081 57.4327 21.9028 57.4394 21.8988C57.6594 21.7566 57.8583 21.5841 58.0302 21.3864C58.0355 21.3808 58.0419 21.3764 58.049 21.3734C58.0561 21.3704 58.0638 21.3688 58.0715 21.3688C58.0792 21.3688 58.0868 21.3704 58.0939 21.3734C58.101 21.3764 58.1074 21.3808 58.1128 21.3864C58.1183 21.3917 58.1227 21.3982 58.1257 21.4053C58.1287 21.4123 58.1303 21.42 58.1303 21.4277C58.1303 21.4354 58.1287 21.443 58.1257 21.4501C58.1227 21.4572 58.1183 21.4636 58.1128 21.469C57.9339 21.6756 57.7264 21.8557 57.4968 22.0038C57.487 22.0094 57.4758 22.0123 57.4646 22.0122C57.4552 22.0109 57.4463 22.0073 57.4387 22.0017C57.4311 21.996 57.4251 21.9886 57.4212 21.98ZM53.7812 21.455C53.6028 21.2478 53.4548 21.0164 53.3416 20.7676C53.3383 20.7605 53.3365 20.7529 53.3362 20.7451C53.3359 20.7373 53.3371 20.7295 53.3399 20.7222C53.3426 20.7149 53.3468 20.7083 53.3521 20.7026C53.3574 20.6969 53.3639 20.6924 53.371 20.6892C53.3851 20.683 53.4011 20.6826 53.4155 20.6881C53.4299 20.6936 53.4415 20.7046 53.448 20.7186C53.5561 20.9571 53.6975 21.1791 53.868 21.378C53.8751 21.3865 53.8797 21.397 53.8812 21.408C53.8827 21.4191 53.881 21.4304 53.8763 21.4405C53.8716 21.4507 53.8641 21.4592 53.8547 21.4653C53.8453 21.4713 53.8343 21.4745 53.8232 21.4746C53.8147 21.4739 53.8064 21.4715 53.7989 21.4674C53.7914 21.4632 53.7849 21.4576 53.7798 21.4508L53.7812 21.455ZM58.4852 20.8068C58.4781 20.8036 58.4716 20.7991 58.4663 20.7934C58.461 20.7877 58.4568 20.781 58.4541 20.7737C58.4513 20.7664 58.4501 20.7587 58.4504 20.7509C58.4507 20.7431 58.4525 20.7355 58.4558 20.7284C58.5648 20.4905 58.6393 20.2383 58.677 19.9794C58.6794 19.9639 58.6878 19.9499 58.7003 19.9405C58.7129 19.9311 58.7286 19.927 58.7442 19.929C58.7517 19.93 58.759 19.9325 58.7656 19.9364C58.7722 19.9403 58.7779 19.9455 58.7825 19.9516C58.7871 19.9577 58.7904 19.9647 58.7922 19.9721C58.794 19.9795 58.7944 19.9872 58.7932 19.9948C58.7546 20.2655 58.6768 20.5291 58.5622 20.7774C58.5577 20.7878 58.5503 20.7967 58.5409 20.8029C58.5314 20.8092 58.5203 20.8125 58.509 20.8124C58.4998 20.8117 58.491 20.8083 58.4838 20.8026L58.4852 20.8068ZM53.1134 19.9836C53.0742 19.7134 53.0742 19.439 53.1134 19.1688C53.1141 19.1608 53.1164 19.1531 53.1202 19.146C53.124 19.139 53.1291 19.1328 53.1354 19.1278C53.1417 19.1228 53.1489 19.1192 53.1566 19.1171C53.1644 19.115 53.1724 19.1145 53.1804 19.1157C53.1883 19.1168 53.1959 19.1196 53.2027 19.1238C53.2095 19.1279 53.2154 19.1335 53.22 19.14C53.2246 19.1466 53.2279 19.154 53.2295 19.1618C53.2311 19.1697 53.2312 19.1777 53.2296 19.1856C53.21 19.3177 53.2002 19.451 53.2002 19.5846C53.2007 19.7129 53.2095 19.841 53.2268 19.9682C53.2282 19.9758 53.228 19.9835 53.2262 19.991C53.2245 19.9985 53.2212 20.0056 53.2166 20.0118C53.212 20.0179 53.2062 20.0231 53.1995 20.0269C53.1928 20.0307 53.1854 20.0332 53.1778 20.034H53.1694C53.1547 20.0337 53.1407 20.0279 53.1301 20.0178C53.1195 20.0077 53.113 19.994 53.112 19.9794L53.1134 19.9836ZM58.6784 19.1968C58.6412 18.937 58.5672 18.6839 58.4586 18.445C58.4553 18.4381 58.4534 18.4306 58.453 18.423C58.4526 18.4154 58.4538 18.4078 58.4564 18.4006C58.459 18.3934 58.463 18.3869 58.4682 18.3813C58.4734 18.3757 58.4796 18.3711 58.4866 18.368C58.4936 18.3647 58.5011 18.3628 58.5088 18.3624C58.5166 18.362 58.5243 18.3631 58.5316 18.3657C58.5389 18.3683 58.5456 18.3723 58.5513 18.3775C58.557 18.3827 58.5617 18.389 58.565 18.396C58.6802 18.6448 58.7594 18.9088 58.8002 19.18C58.8022 19.1954 58.798 19.2109 58.7885 19.2233C58.7791 19.2356 58.7652 19.2437 58.7498 19.2458H58.7414C58.7336 19.2466 58.7258 19.2458 58.7184 19.2435C58.711 19.2413 58.7041 19.2376 58.6981 19.2326C58.6921 19.2277 58.6871 19.2216 58.6835 19.2147C58.6799 19.2078 58.6777 19.2003 58.677 19.1926L58.6784 19.1968ZM53.378 18.4646C53.3708 18.4614 53.3644 18.4569 53.3591 18.4512C53.3538 18.4455 53.3496 18.4388 53.3469 18.4315C53.3441 18.4242 53.3429 18.4165 53.3432 18.4087C53.3435 18.4009 53.3453 18.3933 53.3486 18.3862C53.463 18.1379 53.6124 17.9074 53.7924 17.7016C53.8034 17.6907 53.8182 17.6846 53.8337 17.6846C53.8491 17.6846 53.864 17.6907 53.875 17.7016C53.8805 17.7069 53.8849 17.7134 53.8879 17.7205C53.891 17.7275 53.8925 17.7352 53.8925 17.7429C53.8925 17.7506 53.891 17.7582 53.8879 17.7653C53.8849 17.7724 53.8805 17.7788 53.875 17.7842C53.7051 17.9825 53.5638 18.2035 53.455 18.4408C53.4505 18.4512 53.4431 18.4601 53.4337 18.4663C53.4242 18.4726 53.4131 18.4759 53.4018 18.4758C53.3923 18.4726 53.3837 18.4674 53.3766 18.4604L53.378 18.4646ZM58.0344 17.78C57.8625 17.5819 57.6636 17.4089 57.4436 17.2662C57.4359 17.2626 57.4292 17.2575 57.4237 17.2511C57.4182 17.2448 57.4142 17.2373 57.4119 17.2292C57.4095 17.2212 57.4089 17.2127 57.4101 17.2044C57.4113 17.1961 57.4143 17.1881 57.4189 17.1811C57.4234 17.174 57.4294 17.168 57.4365 17.1634C57.4435 17.1589 57.4515 17.1559 57.4598 17.1547C57.4681 17.1535 57.4766 17.154 57.4846 17.1564C57.4927 17.1587 57.5002 17.1627 57.5066 17.1682C57.7362 17.3163 57.9437 17.4964 58.1226 17.703C58.1334 17.714 58.1395 17.7288 58.1395 17.7443C58.1395 17.7597 58.1334 17.7746 58.1226 17.7856C58.1118 17.7953 58.0979 17.8007 58.0834 17.801C58.0741 17.8018 58.0648 17.8004 58.0562 17.7967C58.0477 17.793 58.0401 17.7873 58.0344 17.78ZM54.3944 17.2424C54.3864 17.2291 54.3838 17.2133 54.3872 17.1981C54.3906 17.183 54.3997 17.1698 54.4126 17.1612C54.6425 17.0139 54.8924 16.9003 55.1546 16.8238C55.1622 16.8206 55.1704 16.819 55.1786 16.8192C55.1869 16.8194 55.195 16.8213 55.2024 16.8248C55.2099 16.8283 55.2165 16.8334 55.2219 16.8396C55.2273 16.8459 55.2313 16.8532 55.2337 16.8611C55.2361 16.869 55.2367 16.8773 55.2357 16.8855C55.2346 16.8937 55.2319 16.9015 55.2276 16.9086C55.2233 16.9156 55.2176 16.9217 55.2108 16.9264C55.204 16.9311 55.1963 16.9343 55.1882 16.9358C54.9366 17.0101 54.6967 17.1195 54.4756 17.2606C54.4664 17.2665 54.4557 17.2699 54.4448 17.2704C54.4342 17.2715 54.4236 17.2697 54.414 17.2653C54.4044 17.2609 54.3962 17.2539 54.3902 17.2452L54.3944 17.2424ZM56.7324 16.94C56.4809 16.8658 56.2203 16.8277 55.9582 16.8266C55.9426 16.8266 55.9276 16.8204 55.9166 16.8094C55.9056 16.7983 55.8994 16.7834 55.8994 16.7678C55.8994 16.7522 55.9056 16.7372 55.9166 16.7262C55.9276 16.7152 55.9426 16.709 55.9582 16.709C56.2316 16.7099 56.5036 16.7495 56.766 16.8266C56.7792 16.8308 56.7906 16.8396 56.7979 16.8515C56.8053 16.8633 56.8083 16.8773 56.8063 16.8911C56.8042 16.9049 56.7974 16.9175 56.7869 16.9267C56.7765 16.9359 56.7631 16.9411 56.7492 16.9414L56.7324 16.94Z" fill="#407BFF"/>
<path d="M55.9527 21.9198C57.2447 21.9198 58.2921 20.8724 58.2921 19.5804C58.2921 18.2884 57.2447 17.241 55.9527 17.241C54.6607 17.241 53.6133 18.2884 53.6133 19.5804C53.6133 20.8724 54.6607 21.9198 55.9527 21.9198Z" fill="#407BFF"/>
<path d="M55.4403 20.5954C55.4193 20.5947 55.3987 20.5898 55.3796 20.5809C55.3606 20.572 55.3436 20.5593 55.3297 20.5436L54.6297 19.7624C54.6042 19.7312 54.5917 19.6915 54.5947 19.6513C54.5977 19.6112 54.616 19.5737 54.6459 19.5467C54.6758 19.5197 54.7149 19.5053 54.7551 19.5063C54.7954 19.5074 54.8337 19.5239 54.8621 19.5524L55.4599 20.2146L56.9565 18.76C56.9866 18.7312 57.0269 18.7156 57.0685 18.7165C57.1101 18.7174 57.1496 18.7348 57.1784 18.7649C57.2072 18.795 57.2228 18.8352 57.2219 18.8768C57.221 18.9185 57.2036 18.958 57.1735 18.9868L55.5481 20.552C55.519 20.5796 55.4804 20.5951 55.4403 20.5954Z" fill="white"/>
<path d="M56.0241 26.0484V25.7488C56.0266 25.7307 56.0356 25.7141 56.0493 25.7021C56.0631 25.6901 56.0808 25.6835 56.099 25.6835C56.1173 25.6835 56.135 25.6901 56.1487 25.7021C56.1625 25.7141 56.1715 25.7307 56.1739 25.7488V26.0484C56.1754 26.0591 56.1746 26.07 56.1715 26.0803C56.1684 26.0907 56.1631 26.1002 56.156 26.1084C56.1489 26.1165 56.1402 26.123 56.1303 26.1275C56.1205 26.132 56.1098 26.1343 56.099 26.1343C56.0882 26.1343 56.0776 26.132 56.0677 26.1275C56.0579 26.123 56.0492 26.1165 56.0421 26.1084C56.035 26.1002 56.0297 26.0907 56.0266 26.0803C56.0235 26.07 56.0227 26.0591 56.0241 26.0484ZM56.0241 25.151V24.8514C56.0266 24.8333 56.0356 24.8167 56.0493 24.8047C56.0631 24.7927 56.0808 24.7861 56.099 24.7861C56.1173 24.7861 56.135 24.7927 56.1487 24.8047C56.1625 24.8167 56.1715 24.8333 56.1739 24.8514V25.151C56.1715 25.1691 56.1625 25.1857 56.1487 25.1977C56.135 25.2097 56.1173 25.2163 56.099 25.2163C56.0808 25.2163 56.0631 25.2097 56.0493 25.1977C56.0356 25.1857 56.0266 25.1691 56.0241 25.151ZM56.0241 24.2522V23.954C56.0227 23.9433 56.0235 23.9324 56.0266 23.9221C56.0297 23.9117 56.035 23.9022 56.0421 23.894C56.0492 23.8859 56.0579 23.8794 56.0677 23.8749C56.0776 23.8705 56.0882 23.8681 56.099 23.8681C56.1098 23.8681 56.1205 23.8705 56.1303 23.8749C56.1402 23.8794 56.1489 23.8859 56.156 23.894C56.1631 23.9022 56.1684 23.9117 56.1715 23.9221C56.1746 23.9324 56.1754 23.9433 56.1739 23.954V24.2522C56.1754 24.2629 56.1746 24.2738 56.1715 24.2841C56.1684 24.2945 56.1631 24.304 56.156 24.3122C56.1489 24.3203 56.1402 24.3268 56.1303 24.3313C56.1205 24.3358 56.1098 24.3381 56.099 24.3381C56.0882 24.3381 56.0776 24.3358 56.0677 24.3313C56.0579 24.3268 56.0492 24.3203 56.0421 24.3122C56.035 24.304 56.0297 24.2945 56.0266 24.2841C56.0235 24.2738 56.0227 24.2629 56.0241 24.2522ZM56.0241 23.3548V23.0552C56.0266 23.0371 56.0356 23.0205 56.0493 23.0085C56.0631 22.9965 56.0808 22.9899 56.099 22.9899C56.1173 22.9899 56.135 22.9965 56.1487 23.0085C56.1625 23.0205 56.1715 23.0371 56.1739 23.0552V23.3548C56.1754 23.3655 56.1746 23.3764 56.1715 23.3867C56.1684 23.3971 56.1631 23.4066 56.156 23.4148C56.1489 23.4229 56.1402 23.4294 56.1303 23.4339C56.1205 23.4384 56.1098 23.4407 56.099 23.4407C56.0882 23.4407 56.0776 23.4384 56.0677 23.4339C56.0579 23.4294 56.0492 23.4229 56.0421 23.4148C56.035 23.4066 56.0297 23.3971 56.0266 23.3867C56.0235 23.3764 56.0227 23.3655 56.0241 23.3548Z" fill="#407BFF"/>
<path d="M55.9496 26.8716H56.0994C56.1191 26.8716 56.138 26.8638 56.1519 26.8498C56.1658 26.8359 56.1736 26.8171 56.1736 26.7974V26.6476C56.1751 26.6369 56.1743 26.626 56.1712 26.6156C56.1681 26.6053 56.1628 26.5957 56.1557 26.5876C56.1486 26.5795 56.1399 26.573 56.13 26.5685C56.1202 26.564 56.1095 26.5617 56.0987 26.5617C56.0879 26.5617 56.0773 26.564 56.0674 26.5685C56.0576 26.573 56.0489 26.5795 56.0418 26.5876C56.0347 26.5957 56.0294 26.6053 56.0263 26.6156C56.0232 26.626 56.0224 26.6369 56.0238 26.6476V26.7218H55.9496C55.9389 26.7203 55.9281 26.7211 55.9177 26.7242C55.9074 26.7273 55.8978 26.7326 55.8897 26.7397C55.8815 26.7468 55.875 26.7556 55.8705 26.7654C55.8661 26.7752 55.8638 26.7859 55.8638 26.7967C55.8638 26.8075 55.8661 26.8181 55.8705 26.828C55.875 26.8378 55.8815 26.8465 55.8897 26.8536C55.8978 26.8607 55.9074 26.866 55.9177 26.8691C55.9281 26.8722 55.9389 26.873 55.9496 26.8716Z" fill="#407BFF"/>
<path d="M52.4707 26.7974C52.4707 26.7773 52.4787 26.7581 52.4928 26.7439C52.507 26.7297 52.5262 26.7218 52.5463 26.7218H52.8263C52.8444 26.7242 52.861 26.7332 52.873 26.747C52.885 26.7607 52.8916 26.7784 52.8916 26.7967C52.8916 26.8149 52.885 26.8326 52.873 26.8464C52.861 26.8601 52.8444 26.8691 52.8263 26.8716H52.5463C52.5265 26.8716 52.5075 26.8638 52.4933 26.8499C52.4792 26.836 52.4711 26.8172 52.4707 26.7974ZM53.3219 26.7974C53.3219 26.7773 53.3299 26.7581 53.344 26.7439C53.3582 26.7297 53.3775 26.7218 53.3975 26.7218H53.6775C53.6882 26.7203 53.6991 26.7211 53.7094 26.7242C53.7198 26.7273 53.7293 26.7326 53.7375 26.7397C53.7456 26.7468 53.7521 26.7556 53.7566 26.7654C53.7611 26.7752 53.7634 26.7859 53.7634 26.7967C53.7634 26.8075 53.7611 26.8181 53.7566 26.828C53.7521 26.8378 53.7456 26.8465 53.7375 26.8536C53.7293 26.8607 53.7198 26.866 53.7094 26.8691C53.6991 26.8722 53.6882 26.873 53.6775 26.8716H53.3975C53.3777 26.8716 53.3587 26.8638 53.3445 26.8499C53.3304 26.836 53.3223 26.8172 53.3219 26.7974ZM54.1731 26.7974C54.1731 26.7776 54.1809 26.7585 54.1947 26.7444C54.2086 26.7303 54.2275 26.7221 54.2473 26.7218H54.5273C54.5454 26.7242 54.562 26.7332 54.574 26.747C54.586 26.7607 54.5926 26.7784 54.5926 26.7967C54.5926 26.8149 54.586 26.8326 54.574 26.8464C54.562 26.8601 54.5454 26.8691 54.5273 26.8716H54.2473C54.2289 26.8698 54.2117 26.8612 54.1993 26.8475C54.1869 26.8338 54.18 26.8159 54.1801 26.7974H54.1731ZM55.0243 26.7974C55.0243 26.7776 55.0321 26.7585 55.0459 26.7444C55.0598 26.7303 55.0787 26.7221 55.0985 26.7218H55.3785C55.3966 26.7242 55.4132 26.7332 55.4252 26.747C55.4372 26.7607 55.4438 26.7784 55.4438 26.7967C55.4438 26.8149 55.4372 26.8326 55.4252 26.8464C55.4132 26.8601 55.3966 26.8691 55.3785 26.8716H55.0985C55.0884 26.8721 55.0783 26.8706 55.0688 26.8672C55.0593 26.8637 55.0506 26.8583 55.0433 26.8514C55.036 26.8444 55.0301 26.8361 55.0261 26.8268C55.0221 26.8175 55.0201 26.8075 55.0201 26.7974H55.0243Z" fill="#407BFF"/>
<path d="M13.6012 22.449C13.3278 22.4493 13.0557 22.4101 12.7934 22.3328C12.7786 22.3282 12.766 22.3181 12.7585 22.3045C12.7509 22.291 12.7489 22.275 12.7528 22.26C12.7573 22.2452 12.7675 22.2328 12.7812 22.2254C12.7948 22.2181 12.8108 22.2164 12.8256 22.2208C13.0776 22.2941 13.3387 22.3314 13.6012 22.3314C13.6174 22.3313 13.6329 22.3373 13.6449 22.3482C13.6568 22.3591 13.6642 22.3741 13.6656 22.3902C13.6662 22.3976 13.6652 22.405 13.6628 22.412C13.6604 22.4191 13.6566 22.4255 13.6517 22.431C13.6467 22.4365 13.6406 22.441 13.6339 22.444C13.6271 22.4471 13.6198 22.4488 13.6124 22.449V22.3902L13.6012 22.449ZM14.402 22.3328C14.3881 22.3325 14.3747 22.3273 14.3642 22.3181C14.3538 22.3089 14.3469 22.2963 14.3449 22.2825C14.3429 22.2687 14.3459 22.2547 14.3532 22.2429C14.3606 22.231 14.3719 22.2222 14.3852 22.218C14.6362 22.1424 14.8751 22.0316 15.095 21.889C15.108 21.8805 15.1239 21.8775 15.1391 21.8806C15.1543 21.8838 15.1676 21.8928 15.1762 21.9058C15.1806 21.9122 15.1837 21.9194 15.1852 21.927C15.1867 21.9346 15.1867 21.9424 15.1851 21.95C15.1836 21.9576 15.1805 21.9647 15.1761 21.9711C15.1716 21.9775 15.166 21.9829 15.1594 21.987C14.9307 22.1361 14.6818 22.2516 14.4202 22.33L14.402 22.3328ZM12.0836 22.0024C12.0723 22.0025 12.0612 21.9996 12.0514 21.994C11.8217 21.8459 11.6143 21.6658 11.4354 21.4592C11.4299 21.4538 11.4255 21.4474 11.4224 21.4403C11.4194 21.4332 11.4179 21.4256 11.4179 21.4179C11.4179 21.4102 11.4194 21.4025 11.4224 21.3954C11.4255 21.3884 11.4299 21.3819 11.4354 21.3766C11.4408 21.371 11.4472 21.3666 11.4543 21.3636C11.4614 21.3606 11.469 21.359 11.4767 21.359C11.4844 21.359 11.492 21.3606 11.4991 21.3636C11.5062 21.3666 11.5127 21.371 11.518 21.3766C11.6899 21.5743 11.8888 21.7468 12.1088 21.889C12.1153 21.8931 12.121 21.8985 12.1254 21.9048C12.1299 21.9111 12.1331 21.9183 12.1347 21.9258C12.1364 21.9334 12.1366 21.9412 12.1353 21.9488C12.134 21.9564 12.1312 21.9637 12.127 21.9702C12.123 21.9787 12.1169 21.9861 12.1093 21.9917C12.1018 21.9973 12.0929 22.001 12.0836 22.0024ZM15.7236 21.4704C15.7097 21.4707 15.6962 21.4657 15.6858 21.4564C15.6803 21.451 15.6759 21.4446 15.6728 21.4375C15.6698 21.4304 15.6683 21.4228 15.6683 21.4151C15.6683 21.4074 15.6698 21.3997 15.6728 21.3926C15.6759 21.3856 15.6803 21.3791 15.6858 21.3738C15.8563 21.1749 15.9977 20.9529 16.1058 20.7144C16.1122 20.7004 16.1239 20.6894 16.1383 20.6839C16.1527 20.6784 16.1687 20.6788 16.1828 20.685C16.1899 20.6882 16.1963 20.6927 16.2017 20.6984C16.207 20.7041 16.2112 20.7107 16.2139 20.718C16.2166 20.7253 16.2179 20.7331 16.2176 20.7409C16.2173 20.7487 16.2155 20.7563 16.2122 20.7634C16.099 21.0122 15.951 21.2436 15.7726 21.4508C15.7671 21.4568 15.7604 21.4617 15.7529 21.4651C15.7455 21.4684 15.7374 21.4702 15.7292 21.4704H15.7236ZM11.0462 20.8082C11.0347 20.8083 11.0234 20.8051 11.0136 20.7989C11.0039 20.7927 10.9963 20.7837 10.9916 20.7732C10.8775 20.5249 10.8001 20.2612 10.762 19.9906C10.7608 19.983 10.7612 19.9753 10.763 19.9679C10.7648 19.9605 10.7681 19.9535 10.7727 19.9474C10.7772 19.9413 10.783 19.9361 10.7896 19.9322C10.7961 19.9283 10.8034 19.9258 10.811 19.9248C10.8266 19.9228 10.8423 19.9269 10.8549 19.9363C10.8674 19.9457 10.8758 19.9597 10.8782 19.9752C10.9156 20.2328 10.9901 20.4837 11.0994 20.72C11.1056 20.7343 11.1061 20.7505 11.1006 20.7651C11.0951 20.7798 11.0841 20.7917 11.07 20.7984C11.063 20.8035 11.0548 20.8069 11.0462 20.8082ZM16.3802 20.0298C16.3648 20.0277 16.3509 20.0196 16.3414 20.0073C16.332 19.9949 16.3278 19.9794 16.3298 19.964C16.3477 19.8369 16.3566 19.7087 16.3564 19.5804C16.3562 19.4469 16.3468 19.3136 16.3284 19.1814C16.327 19.1737 16.3272 19.1659 16.3289 19.1583C16.3307 19.1507 16.3339 19.1436 16.3385 19.1373C16.3431 19.131 16.3489 19.1257 16.3556 19.1217C16.3623 19.1178 16.3697 19.1152 16.3774 19.1142C16.393 19.1122 16.4087 19.1163 16.4213 19.1257C16.4338 19.1351 16.4422 19.1491 16.4446 19.1646C16.4819 19.4349 16.4819 19.7091 16.4446 19.9794C16.4425 19.9945 16.4346 20.0082 16.4226 20.0176C16.4106 20.027 16.3954 20.0314 16.3802 20.0298ZM10.8166 19.243H10.8082C10.7928 19.2409 10.7789 19.2328 10.7694 19.2205C10.76 19.2081 10.7558 19.1926 10.7578 19.1772C10.7961 18.9061 10.8734 18.6421 10.9874 18.3932C10.9947 18.3804 11.0065 18.3709 11.0205 18.3664C11.0345 18.3619 11.0497 18.3628 11.063 18.369C11.0764 18.3751 11.0869 18.3861 11.0926 18.3996C11.0983 18.4132 11.0988 18.4283 11.0938 18.4422C10.9846 18.6808 10.9105 18.9341 10.874 19.194C10.8718 19.2071 10.8652 19.2191 10.8553 19.228C10.8454 19.2369 10.8327 19.2422 10.8194 19.243H10.8166ZM16.1506 18.466C16.1393 18.466 16.1282 18.4628 16.1187 18.4565C16.1092 18.4503 16.1018 18.4414 16.0974 18.431C15.9886 18.1937 15.8472 17.9727 15.6774 17.7744C15.6719 17.769 15.6675 17.7626 15.6644 17.7555C15.6614 17.7484 15.6599 17.7408 15.6599 17.7331C15.6599 17.7254 15.6614 17.7177 15.6644 17.7106C15.6675 17.7036 15.6719 17.6971 15.6774 17.6918C15.6884 17.6809 15.7033 17.6748 15.7187 17.6748C15.7342 17.6748 15.749 17.6809 15.76 17.6918C15.9395 17.8979 16.0889 18.1284 16.2038 18.3764C16.2071 18.3834 16.2089 18.3911 16.2092 18.3989C16.2095 18.4067 16.2082 18.4144 16.2055 18.4217C16.2028 18.429 16.1986 18.4357 16.1933 18.4414C16.1879 18.4471 16.1815 18.4516 16.1744 18.4548C16.1681 18.4598 16.161 18.4636 16.1534 18.466H16.1506ZM11.4802 17.8038C11.4657 17.8035 11.4518 17.7981 11.441 17.7884C11.4302 17.7774 11.4241 17.7625 11.4241 17.7471C11.4241 17.7316 11.4302 17.7168 11.441 17.7058C11.615 17.5006 11.8167 17.3206 12.0402 17.171C12.0466 17.166 12.054 17.1625 12.0618 17.1605C12.0697 17.1585 12.0779 17.1582 12.0858 17.1596C12.0938 17.1609 12.1014 17.1639 12.1082 17.1683C12.115 17.1727 12.1208 17.1785 12.1252 17.1853C12.1297 17.192 12.1327 17.1996 12.1341 17.2076C12.1354 17.2156 12.1351 17.2238 12.1332 17.2316C12.1313 17.2395 12.1277 17.2469 12.1228 17.2533C12.1179 17.2597 12.1117 17.2651 12.1046 17.269C11.8867 17.4113 11.6898 17.5833 11.5194 17.78C11.5149 17.7865 11.5091 17.792 11.5024 17.7961C11.4956 17.8002 11.4881 17.8028 11.4802 17.8038ZM15.1202 17.2732C15.1088 17.2727 15.0977 17.2693 15.088 17.2634C14.8674 17.1223 14.6279 17.0129 14.3768 16.9386C14.3694 16.9365 14.3624 16.9329 14.3563 16.9281C14.3502 16.9233 14.3452 16.9174 14.3414 16.9106C14.3376 16.9039 14.3352 16.8964 14.3343 16.8887C14.3334 16.881 14.3341 16.8732 14.3362 16.8658C14.3407 16.851 14.3509 16.8386 14.3646 16.8312C14.3782 16.8239 14.3942 16.8222 14.409 16.8266C14.6716 16.9031 14.9219 17.0167 15.1524 17.164C15.1654 17.1726 15.1744 17.1859 15.1776 17.2011C15.1807 17.2163 15.1777 17.2322 15.1692 17.2452C15.1641 17.2537 15.157 17.2607 15.1484 17.2656C15.1398 17.2705 15.1301 17.2731 15.1202 17.2732ZM12.8046 16.94C12.7918 16.94 12.7794 16.9359 12.769 16.9284C12.7587 16.9208 12.7511 16.9102 12.7472 16.898C12.7451 16.8905 12.7444 16.8827 12.7453 16.875C12.7462 16.8674 12.7486 16.8599 12.7524 16.8531C12.7562 16.8464 12.7612 16.8404 12.7673 16.8356C12.7734 16.8308 12.7804 16.8273 12.7878 16.8252C13.0497 16.7482 13.3212 16.7086 13.5942 16.7076C13.6098 16.7076 13.6248 16.7138 13.6358 16.7248C13.6468 16.7358 13.653 16.7508 13.653 16.7664C13.653 16.782 13.6468 16.7969 13.6358 16.808C13.6248 16.819 13.6098 16.8252 13.5942 16.8252C13.3325 16.8261 13.0723 16.8643 12.8214 16.9386L12.8046 16.94Z" fill="#407BFF"/>
<path d="M13.6011 21.9198C14.8931 21.9198 15.9405 20.8724 15.9405 19.5804C15.9405 18.2884 14.8931 17.241 13.6011 17.241C12.3091 17.241 11.2617 18.2884 11.2617 19.5804C11.2617 20.8724 12.3091 21.9198 13.6011 21.9198Z" fill="#407BFF"/>
<path d="M13.1936 20.5954C13.1726 20.5947 13.152 20.5898 13.133 20.5809C13.1139 20.572 13.0969 20.5593 13.083 20.5436L12.383 19.7624C12.3552 19.7314 12.3408 19.6906 12.343 19.649C12.3452 19.6073 12.3639 19.5683 12.3949 19.5405C12.4259 19.5126 12.4667 19.4982 12.5083 19.5005C12.5499 19.5027 12.589 19.5214 12.6168 19.5524L13.2132 20.2146L14.7112 18.76C14.7413 18.7312 14.7816 18.7156 14.8232 18.7165C14.8648 18.7174 14.9043 18.7348 14.9331 18.7649C14.9619 18.795 14.9775 18.8352 14.9766 18.8768C14.9757 18.9185 14.9583 18.958 14.9282 18.9868L13.3 20.552C13.2712 20.5793 13.2333 20.5948 13.1936 20.5954Z" fill="white"/>
<path d="M13.454 26.124C13.434 26.124 13.4147 26.116 13.4006 26.1018C13.3864 26.0876 13.3784 26.0684 13.3784 26.0484V25.7488C13.3784 25.7287 13.3864 25.7095 13.4006 25.6953C13.4147 25.6811 13.434 25.6732 13.454 25.6732C13.4741 25.6732 13.4933 25.6811 13.5075 25.6953C13.5217 25.7095 13.5296 25.7287 13.5296 25.7488V26.0484C13.5296 26.0684 13.5217 26.0876 13.5075 26.1018C13.4933 26.116 13.4741 26.124 13.454 26.124ZM13.454 25.2252C13.4342 25.2252 13.4152 25.2174 13.4011 25.2035C13.3869 25.1896 13.3788 25.1708 13.3784 25.151V24.8514C13.3784 24.8313 13.3864 24.8121 13.4006 24.7979C13.4147 24.7837 13.434 24.7758 13.454 24.7758C13.4741 24.7758 13.4933 24.7837 13.5075 24.7979C13.5217 24.8121 13.5296 24.8313 13.5296 24.8514V25.151C13.5293 25.1708 13.5211 25.1896 13.507 25.2035C13.4928 25.2174 13.4738 25.2252 13.454 25.2252ZM13.454 24.3278C13.434 24.3278 13.4147 24.3198 13.4006 24.3056C13.3864 24.2914 13.3784 24.2722 13.3784 24.2522V23.954C13.3784 23.9339 13.3864 23.9147 13.4006 23.9005C13.4147 23.8863 13.434 23.8784 13.454 23.8784C13.4741 23.8784 13.4933 23.8863 13.5075 23.9005C13.5217 23.9147 13.5296 23.9339 13.5296 23.954V24.2522C13.5296 24.2621 13.5277 24.2719 13.5239 24.2811C13.5201 24.2903 13.5145 24.2986 13.5075 24.3056C13.5005 24.3126 13.4921 24.3182 13.4829 24.322C13.4738 24.3258 13.4639 24.3278 13.454 24.3278ZM13.454 23.4304C13.434 23.4304 13.4147 23.4224 13.4006 23.4082C13.3864 23.394 13.3784 23.3748 13.3784 23.3548V23.0552C13.3784 23.0351 13.3864 23.0159 13.4006 23.0017C13.4147 22.9875 13.434 22.9796 13.454 22.9796C13.4741 22.9796 13.4933 22.9875 13.5075 23.0017C13.5217 23.0159 13.5296 23.0351 13.5296 23.0552V23.3548C13.5296 23.3748 13.5217 23.394 13.5075 23.4082C13.4933 23.4224 13.4741 23.4304 13.454 23.4304Z" fill="#407BFF"/>
<path d="M13.6038 26.8716H13.454C13.4342 26.8716 13.4152 26.8638 13.4011 26.8499C13.3869 26.836 13.3788 26.8172 13.3784 26.7974V26.6476C13.3784 26.6275 13.3864 26.6083 13.4006 26.5941C13.4147 26.5799 13.434 26.572 13.454 26.572C13.4741 26.572 13.4933 26.5799 13.5075 26.5941C13.5217 26.6083 13.5296 26.6275 13.5296 26.6476V26.7218H13.6038C13.6145 26.7203 13.6254 26.7211 13.6357 26.7242C13.6461 26.7273 13.6556 26.7326 13.6638 26.7397C13.6719 26.7468 13.6784 26.7555 13.6829 26.7654C13.6874 26.7752 13.6897 26.7859 13.6897 26.7967C13.6897 26.8075 13.6874 26.8181 13.6829 26.828C13.6784 26.8378 13.6719 26.8465 13.6638 26.8536C13.6556 26.8607 13.6461 26.866 13.6357 26.8691C13.6254 26.8722 13.6145 26.873 13.6038 26.8716Z" fill="#407BFF"/>
<path d="M17.0074 26.8716H16.7274C16.7093 26.8691 16.6927 26.8601 16.6807 26.8464C16.6687 26.8326 16.6621 26.8149 16.6621 26.7967C16.6621 26.7784 16.6687 26.7607 16.6807 26.747C16.6927 26.7332 16.7093 26.7242 16.7274 26.7218H17.0074C17.0255 26.7242 17.0421 26.7332 17.0541 26.747C17.0661 26.7607 17.0727 26.7784 17.0727 26.7967C17.0727 26.8149 17.0661 26.8326 17.0541 26.8464C17.0421 26.8601 17.0255 26.8691 17.0074 26.8716ZM16.1562 26.8716H15.8762C15.8655 26.873 15.8546 26.8722 15.8443 26.8691C15.8339 26.866 15.8244 26.8607 15.8162 26.8536C15.8081 26.8465 15.8016 26.8378 15.7971 26.828C15.7926 26.8181 15.7903 26.8075 15.7903 26.7967C15.7903 26.7859 15.7926 26.7752 15.7971 26.7654C15.8016 26.7556 15.8081 26.7468 15.8162 26.7397C15.8244 26.7326 15.8339 26.7273 15.8443 26.7242C15.8546 26.7211 15.8655 26.7203 15.8762 26.7218H16.1562C16.1669 26.7203 16.1778 26.7211 16.1881 26.7242C16.1985 26.7273 16.208 26.7326 16.2162 26.7397C16.2243 26.7468 16.2308 26.7556 16.2353 26.7654C16.2398 26.7752 16.2421 26.7859 16.2421 26.7967C16.2421 26.8075 16.2398 26.8181 16.2353 26.828C16.2308 26.8378 16.2243 26.8465 16.2162 26.8536C16.208 26.8607 16.1985 26.866 16.1881 26.8691C16.1778 26.8722 16.1669 26.873 16.1562 26.8716ZM15.305 26.8716H15.025C15.0143 26.873 15.0034 26.8722 14.9931 26.8691C14.9827 26.866 14.9732 26.8607 14.965 26.8536C14.9569 26.8465 14.9504 26.8378 14.9459 26.828C14.9414 26.8181 14.9391 26.8075 14.9391 26.7967C14.9391 26.7859 14.9414 26.7752 14.9459 26.7654C14.9504 26.7556 14.9569 26.7468 14.965 26.7397C14.9732 26.7326 14.9827 26.7273 14.9931 26.7242C15.0034 26.7211 15.0143 26.7203 15.025 26.7218H15.305C15.3157 26.7203 15.3266 26.7211 15.3369 26.7242C15.3473 26.7273 15.3568 26.7326 15.365 26.7397C15.3731 26.7468 15.3796 26.7556 15.3841 26.7654C15.3886 26.7752 15.3909 26.7859 15.3909 26.7967C15.3909 26.8075 15.3886 26.8181 15.3841 26.828C15.3796 26.8378 15.3731 26.8465 15.365 26.8536C15.3568 26.8607 15.3473 26.866 15.3369 26.8691C15.3266 26.8722 15.3157 26.873 15.305 26.8716ZM14.4552 26.8716H14.1752C14.1571 26.8691 14.1405 26.8601 14.1285 26.8464C14.1165 26.8326 14.1099 26.8149 14.1099 26.7967C14.1099 26.7784 14.1165 26.7607 14.1285 26.747C14.1405 26.7332 14.1571 26.7242 14.1752 26.7218H14.4552C14.4733 26.7242 14.4899 26.7332 14.5019 26.747C14.5139 26.7607 14.5205 26.7784 14.5205 26.7967C14.5205 26.8149 14.5139 26.8326 14.5019 26.8464C14.4899 26.8601 14.4733 26.8691 14.4552 26.8716Z" fill="#407BFF"/>
<path d="M41.3507 53.823L40.4995 61.4558H48.7553L48.9961 60.4674L49.5043 61.4558L57.0923 61.5188L56.8095 54.2486L41.3507 53.823Z" fill="#263238"/>
<path d="M54.0808 31.0996C50.9588 30.7146 46.532 30.7496 43.592 31.262C42.8648 31.392 42.2012 31.7595 41.7052 32.307C41.2092 32.8544 40.9087 33.5509 40.8508 34.2874C40.4868 38.7674 40.2376 46.2392 41.093 54.1282C48.009 56.448 57.235 54.6364 57.235 54.6364C57.1692 52.374 56.5994 47.6364 56.6372 44.7916C56.6876 41.048 57.0208 38.7128 56.9858 34.8922C56.9676 33.0176 55.94 31.3292 54.0808 31.0996Z" fill="#407BFF"/>
<path opacity="0.2" d="M54.0808 31.0996C50.9588 30.7146 46.532 30.7496 43.592 31.262C42.8648 31.392 42.2012 31.7595 41.7052 32.307C41.2092 32.8544 40.9087 33.5509 40.8508 34.2874C40.4868 38.7674 40.2376 46.2392 41.093 54.1282C48.009 56.448 57.235 54.6364 57.235 54.6364C57.1692 52.374 56.5994 47.6364 56.6372 44.7916C56.6876 41.048 57.0208 38.7128 56.9858 34.8922C56.9676 33.0176 55.94 31.3292 54.0808 31.0996Z" fill="white"/>
<path d="M45.9916 37.1112C45.7452 36.4952 46.4116 35.9002 47.0108 36.1942C47.1947 36.2842 47.3668 36.3965 47.5232 36.5288C47.1704 36.26 46.6146 35.8288 46.7644 35.644C47.0444 35.3024 48.8798 36.4336 49.6722 37.0244C49.1388 36.3594 49.227 35.224 49.5392 35.6566C49.9004 36.1648 50.4142 36.7584 51.1604 37.6852C52.1992 38.969 51.2682 40.2178 51.2682 40.2178C50.3666 41.0074 48.8742 40.4978 48.1182 39.9378C47.3622 39.3778 45.8208 38.22 45.9902 37.7524C46.0588 37.569 46.5334 37.8924 46.8386 38.115C46.4946 37.8491 46.2087 37.5156 45.9986 37.135L45.9916 37.1112Z" fill="#CE7A63"/>
<path d="M49.1151 38.9102C49.1067 38.9186 49.0955 38.9256 49.0871 38.9326L49.1165 38.9116C49.4287 38.6988 49.8865 38.4188 49.9453 38.598C49.9465 38.6016 49.9465 38.6055 49.9453 38.6092C49.9575 38.6698 49.9512 38.7328 49.9271 38.7898C49.7787 39.2 48.9779 39.8244 48.3031 40.3116C48.0987 40.4614 47.9069 40.5916 47.7431 40.7092C46.9703 41.2566 45.3281 41.6626 44.7457 40.8632C44.7457 40.8632 43.6383 40.0232 44.7177 38.7632C45.1853 38.2172 45.6207 37.3926 45.9301 37.03C46.1303 36.7948 46.3025 36.589 46.4495 36.3944C46.5125 36.3118 46.5671 36.2894 46.6063 36.3118C46.6195 36.319 46.6311 36.3288 46.6405 36.3406C46.6499 36.3523 46.6568 36.3659 46.6609 36.3804C46.6938 36.4872 46.7033 36.5999 46.6889 36.7108C46.6709 36.9327 46.6155 37.1499 46.5251 37.3534C46.4619 37.4994 46.3774 37.6352 46.2745 37.7566L46.4033 37.6684L46.5153 37.5942C46.9811 37.2893 47.4645 37.0121 47.9629 36.764C48.1582 36.6662 48.3587 36.5793 48.5635 36.5036C48.8911 36.3888 49.1403 36.3538 49.2229 36.4658C49.2817 36.5442 49.2229 36.6604 49.1081 36.785C48.9627 36.9342 48.8033 37.0693 48.6321 37.1882C48.737 37.1208 48.8464 37.0609 48.9597 37.009C49.1289 36.9299 49.3222 36.9199 49.4987 36.981C49.538 37.0181 49.5636 37.0674 49.5715 37.121C49.5815 37.2421 49.5466 37.3627 49.4735 37.4598C49.6807 37.3618 49.8487 37.3548 49.9509 37.4444C49.963 37.4541 49.9739 37.4654 49.9831 37.478C50.0315 37.638 50.0201 37.8102 49.9509 37.9624C49.9509 37.9722 49.9439 37.9806 49.9411 37.9904C49.9182 38.0388 49.892 38.0856 49.8627 38.1304C49.8221 38.1906 49.7745 38.2536 49.7227 38.318L49.6611 38.3908C49.6541 38.402 49.6443 38.4104 49.6359 38.4216C49.4774 38.5998 49.3031 38.7633 49.1151 38.9102Z" fill="#CE7A63"/>
<g opacity="0.2">
<path d="M46.4579 37.709C46.4522 37.7092 46.4466 37.7081 46.4415 37.7056C46.4363 37.7032 46.4319 37.6995 46.4285 37.695C46.4201 37.688 46.4061 37.667 46.4285 37.6348C46.5083 37.5074 46.7897 36.6226 46.7085 36.4098C46.6987 36.3846 46.6889 36.3818 46.6847 36.3804C46.5447 36.3454 46.1905 36.7598 45.9973 37.0314C45.9945 37.0354 45.9909 37.0389 45.9868 37.0415C45.9826 37.0441 45.978 37.0458 45.9732 37.0466C45.9683 37.0474 45.9634 37.0472 45.9586 37.046C45.9539 37.0449 45.9494 37.0427 45.9455 37.0398C45.9414 37.0369 45.938 37.0332 45.9353 37.0289C45.9327 37.0247 45.9309 37.0199 45.9302 37.015C45.9294 37.01 45.9296 37.005 45.9308 37.0001C45.932 36.9952 45.9341 36.9906 45.9371 36.9866C46.0253 36.8634 46.4775 36.2488 46.7043 36.3076C46.7217 36.3132 46.7375 36.3228 46.7504 36.3357C46.7633 36.3486 46.7729 36.3644 46.7785 36.3818C46.8653 36.603 46.6385 37.352 46.5279 37.6054C46.6343 37.5508 46.8415 37.4276 47.0585 37.2988C47.4645 37.058 48.0217 36.7276 48.5271 36.4742C48.5315 36.4718 48.5363 36.4704 48.5412 36.47C48.5462 36.4695 48.5512 36.4701 48.5559 36.4717C48.5607 36.4733 48.565 36.4758 48.5687 36.4791C48.5724 36.4824 48.5754 36.4865 48.5775 36.491C48.5815 36.5 48.582 36.5101 48.5789 36.5195C48.5758 36.5288 48.5693 36.5366 48.5607 36.5414C48.0567 36.7934 47.5023 37.1224 47.0963 37.3632C46.6203 37.6404 46.5041 37.709 46.4579 37.709Z" fill="black"/>
</g>
<g opacity="0.2">
<path d="M50.0429 38.6246C50.1031 38.892 49.4269 39.5738 48.3629 40.3214C48.3561 40.3234 48.3487 40.3234 48.3419 40.3214C48.3357 40.3213 48.3296 40.3199 48.3241 40.3173C48.3185 40.3146 48.3136 40.3107 48.3097 40.306C48.3043 40.2978 48.3022 40.2877 48.3041 40.2781C48.3059 40.2684 48.3114 40.2598 48.3195 40.2542C49.3345 39.5444 49.8021 39.0418 49.9337 38.7842C49.9636 38.7407 49.9779 38.6884 49.9743 38.6358C49.9702 38.623 49.9624 38.6118 49.9519 38.6036C49.941 38.5993 49.9298 38.5961 49.9183 38.5938C49.6383 38.5504 49.1763 38.9088 49.1707 38.9116C49.1635 38.9179 49.1543 38.9213 49.1448 38.9213C49.1353 38.9213 49.1261 38.9179 49.1189 38.9116C49.1125 38.905 49.1089 38.8962 49.1089 38.8871C49.1089 38.8779 49.1125 38.8691 49.1189 38.8626C49.1189 38.8626 49.7573 38.241 49.9001 37.9288C49.9911 37.73 49.9953 37.5676 49.9127 37.4948C49.8301 37.422 49.6075 37.4542 49.3667 37.6082L48.5141 38.2116C48.5072 38.2135 48.5 38.2135 48.4931 38.2116C48.4869 38.212 48.4806 38.2108 48.475 38.2081C48.4693 38.2054 48.4645 38.2013 48.4609 38.1962C48.4553 38.1881 48.4531 38.1782 48.4546 38.1686C48.4562 38.1589 48.4615 38.1502 48.4693 38.1444L49.3261 37.5396C49.3597 37.5004 49.5389 37.2862 49.5081 37.1196C49.5005 37.088 49.4853 37.0587 49.4638 37.0343C49.4423 37.01 49.4153 36.9912 49.3849 36.9796C49.2071 36.8942 48.8403 37.0818 48.5519 37.268C48.4413 37.352 48.3293 37.4332 48.2271 37.5032C48.219 37.5084 48.2092 37.5105 48.1996 37.5089C48.19 37.5074 48.1814 37.5023 48.1753 37.4948C48.169 37.4876 48.1655 37.4784 48.1655 37.4689C48.1655 37.4593 48.169 37.4501 48.1753 37.443C48.1893 37.4318 48.3251 37.324 48.5057 37.2064C48.7927 36.9922 49.0657 36.778 49.0657 36.7752C49.0724 36.7691 49.0811 36.7657 49.0902 36.7657C49.0993 36.7657 49.108 36.7691 49.1147 36.7752C49.1217 36.7822 49.1256 36.7918 49.1256 36.8018C49.1256 36.8117 49.1217 36.8213 49.1147 36.8284C49.1147 36.8284 49.0475 36.883 48.9481 36.9586C49.0183 36.9197 49.0956 36.8952 49.1753 36.8863C49.2551 36.8774 49.3358 36.8843 49.4129 36.9068C49.4472 36.9223 49.4788 36.9431 49.5067 36.9684C49.546 37.0055 49.5716 37.0548 49.5795 37.1084C49.5895 37.2295 49.5546 37.3501 49.4815 37.4472C49.6887 37.3492 49.8567 37.3422 49.9589 37.4318C49.971 37.4415 49.9819 37.4528 49.9911 37.4654C50.0709 37.569 50.0611 37.7454 49.9673 37.9512C49.9401 38.0081 49.9077 38.0625 49.8707 38.1136C49.8301 38.1738 49.7825 38.2368 49.7307 38.3012L49.6691 38.374C49.6621 38.3852 49.6523 38.3936 49.6439 38.4048C49.5669 38.4944 49.4857 38.584 49.4115 38.6596C49.5649 38.5626 49.7439 38.5138 49.9253 38.5196C49.9537 38.5218 49.9806 38.5333 50.0018 38.5522C50.023 38.5712 50.0375 38.5966 50.0429 38.6246Z" fill="black"/>
</g>
<path d="M46.3695 18.9756C46.3695 18.9756 43.2167 17.6694 41.9777 18.4478C40.9977 19.061 41.7257 20.1908 41.7257 20.1908C41.7257 20.1908 39.8455 20.3378 39.9057 21.5278C39.9533 22.5372 40.9697 22.5456 40.9697 22.5456C40.9697 22.5456 40.3579 23.7272 41.1097 23.9554C41.8615 24.1836 42.6427 22.6268 42.6427 22.6268L46.3695 18.9756Z" fill="#263238"/>
<path d="M49.9017 24.78C49.9017 24.78 50.7669 25.9154 50.6199 26.2486C50.3987 26.747 49.7225 26.2234 49.7225 26.2234C49.7225 26.2234 50.3441 26.9962 49.7785 27.4078C49.2129 27.8194 48.7383 25.8874 48.7383 25.8874L49.9017 24.78Z" fill="#263238"/>
<path d="M44.9751 19.18C45.5965 18.9887 46.2507 18.9272 46.8969 18.9995C47.5431 19.0717 48.1675 19.2761 48.7313 19.6C49.4691 20.0354 50.0949 20.6752 50.0305 21.5824C49.8793 23.6978 49.0995 27.209 49.0995 27.209L42.1247 23.3926C42.1247 23.3926 41.7411 21.6356 42.5531 20.4834C42.9801 19.887 44.0455 19.46 44.9751 19.18Z" fill="#263238"/>
<path d="M45.8345 29.68C45.8388 29.6881 45.8425 29.6965 45.8457 29.7052L46.2335 30.9008C46.3043 31.3396 46.3019 31.7871 46.2265 32.2252C45.9801 32.606 45.8989 33.4418 46.8467 33.3942C48.0437 33.3354 50.1423 31.4678 50.1927 30.9358C49.5501 29.3314 48.9817 27.4442 48.9859 25.8776L47.7021 27.4288L45.8345 29.68Z" fill="#CE7A63"/>
<g opacity="0.2">
<path d="M45.8457 29.7066L46.2335 30.9022C46.9629 30.5186 47.7063 29.7402 47.8421 28.9338C47.9359 28.3514 47.6475 27.8278 47.4137 27.8138L45.8457 29.7066Z" fill="black"/>
</g>
<path d="M42.6791 27.3308C42.7645 27.5912 42.8583 27.846 42.9591 28.098C43.8383 30.3198 46.6411 30.3716 48.2861 28.609C48.4358 28.4488 48.5725 28.277 48.6949 28.0952C49.7197 26.5832 49.3809 25.4828 49.0757 22.9586C49.0112 22.3718 48.7979 21.8113 48.4559 21.3301C48.1139 20.849 47.6546 20.4632 47.1216 20.2095C46.5886 19.9558 45.9996 19.8425 45.4105 19.8804C44.8214 19.9183 44.2518 20.1061 43.7557 20.426C41.7005 21.7322 41.8223 24.7324 42.6791 27.3308Z" fill="#CE7A63"/>
<path d="M45.4356 24.0464C45.207 24.0722 44.9766 24.0183 44.7832 23.8938C44.764 23.8842 44.7474 23.8703 44.7344 23.8532C44.7215 23.8361 44.7127 23.8163 44.7086 23.7953C44.7045 23.7742 44.7054 23.7526 44.711 23.7319C44.7166 23.7112 44.7269 23.6921 44.7411 23.6761C44.7553 23.66 44.7729 23.6474 44.7928 23.6393C44.8126 23.6311 44.834 23.6276 44.8554 23.629C44.8767 23.6305 44.8975 23.6368 44.916 23.6475C44.9346 23.6582 44.9504 23.673 44.9624 23.6908C45.0716 23.7874 45.5616 23.8308 45.8276 23.6614C45.8569 23.6515 45.8888 23.6516 45.9181 23.6617C45.9474 23.6719 45.9725 23.6914 45.9895 23.7174C46.0065 23.7433 46.0144 23.7742 46.0119 23.8051C46.0095 23.836 45.9968 23.8653 45.976 23.8882C45.8122 23.9861 45.6262 24.0405 45.4356 24.0464Z" fill="#263238"/>
<path d="M42.8599 24.5C43.0766 24.4222 43.259 24.2705 43.3751 24.0716C43.3881 24.0544 43.397 24.0345 43.401 24.0134C43.4051 23.9922 43.4042 23.9704 43.3985 23.9497C43.3928 23.9289 43.3823 23.9098 43.368 23.8937C43.3536 23.8777 43.3358 23.8651 43.3158 23.8571C43.2958 23.8491 43.2743 23.8457 43.2528 23.8474C43.2313 23.8491 43.2105 23.8556 43.192 23.8666C43.1735 23.8776 43.1578 23.8928 43.1461 23.9108C43.1344 23.9289 43.127 23.9494 43.1245 23.9708C43.0685 24.1108 42.6527 24.3698 42.3377 24.332C42.3021 24.3288 42.2665 24.3393 42.2384 24.3614C42.2103 24.3835 42.1917 24.4156 42.1865 24.451C42.1836 24.4864 42.1943 24.5216 42.2164 24.5494C42.2385 24.5772 42.2704 24.5956 42.3055 24.6008C42.4959 24.6156 42.6869 24.5808 42.8599 24.5Z" fill="#263238"/>
<path d="M44.3633 27.6696C44.3213 27.6696 44.2961 27.6696 44.2947 27.6696C44.2848 27.6692 44.2751 27.6669 44.2661 27.6627C44.2572 27.6586 44.2491 27.6527 44.2425 27.6454C44.2358 27.6381 44.2307 27.6295 44.2274 27.6202C44.2241 27.6109 44.2227 27.601 44.2233 27.5912C44.2236 27.5811 44.226 27.5712 44.2302 27.5621C44.2344 27.553 44.2404 27.5448 44.2479 27.538C44.2553 27.5312 44.264 27.526 44.2735 27.5226C44.283 27.5192 44.293 27.5178 44.3031 27.5184C44.3437 27.5184 45.3419 27.5562 45.4385 26.4208C45.4382 26.4102 45.4402 26.3996 45.4443 26.3898C45.4484 26.38 45.4545 26.3712 45.4622 26.3639C45.47 26.3567 45.4791 26.3511 45.4891 26.3476C45.4992 26.3441 45.5098 26.3428 45.5204 26.3436C45.531 26.3445 45.5412 26.3476 45.5505 26.3528C45.5598 26.3579 45.5679 26.3649 45.5743 26.3734C45.5807 26.3818 45.5853 26.3915 45.5877 26.4019C45.5901 26.4122 45.5903 26.4229 45.5883 26.4334C45.5001 27.5352 44.6181 27.657 44.3633 27.6696Z" fill="#263238"/>
<path d="M49.1179 23.1882C49.1179 23.1882 48.3563 23.2652 48.3591 23.9204C48.3619 24.5756 48.4333 24.6596 48.4333 24.6596L47.5401 24.8948C47.5401 24.8948 47.6605 22.3874 47.0053 22.4532C46.3501 22.519 47.0053 21.3612 46.5993 21.2198C45.6473 20.8852 43.0993 20.9944 42.2061 22.5764C42.2061 22.5764 42.3853 21.0532 43.5487 20.1768C44.7121 19.3004 47.1285 19.0022 48.1687 20.1418C49.2089 21.2814 49.1179 23.1882 49.1179 23.1882Z" fill="#263238"/>
<path d="M50.4545 24.4216C50.3874 25.0559 50.0718 25.6378 49.5767 26.04C48.9159 26.5692 48.2551 26.0582 48.1613 25.2616C48.0787 24.5434 48.3209 23.4038 49.1175 23.1854C49.9141 22.967 50.5287 23.639 50.4545 24.4188" fill="#CE7A63"/>
<path d="M45.6038 24.8486C45.6402 25.046 45.5646 25.2238 45.4358 25.2476C45.307 25.2714 45.174 25.1314 45.1376 24.9354C45.1012 24.7394 45.1768 24.5588 45.3056 24.5364C45.4344 24.514 45.5674 24.6526 45.6038 24.8486Z" fill="#263238"/>
<path d="M43.4421 25.2196C43.4785 25.417 43.4029 25.5948 43.2755 25.6186C43.1481 25.6424 43.0123 25.5024 42.9759 25.305C42.9395 25.1076 43.0151 24.9298 43.1439 24.906C43.2727 24.8822 43.4057 25.0236 43.4421 25.2196Z" fill="#263238"/>
<path d="M44.0723 24.8052C44.0723 24.8052 43.5669 26.1772 43.5361 26.5202C43.5151 26.7554 44.2571 26.7148 44.2571 26.7148L44.0723 24.8052Z" fill="#BA4D3C"/>
<path d="M57.4912 34.8684C57.8734 35.7728 58.2024 36.6604 58.5286 37.5676C58.6864 38.0212 58.8418 38.4767 58.9948 38.934C59.1446 39.3918 59.2874 39.8524 59.4288 40.3158C59.7088 41.244 59.9608 42.1862 60.1848 43.1592C60.2912 43.6492 60.3892 44.1462 60.4648 44.667C60.504 44.9274 60.539 45.1962 60.5642 45.479C60.5754 45.619 60.5908 45.759 60.5936 45.92V46.151C60.5936 46.2336 60.5936 46.3232 60.5866 46.4072V46.536V46.6074C60.5866 46.662 60.5768 46.7166 60.5684 46.7712C60.5452 46.9234 60.5028 47.072 60.4424 47.2136C60.4032 47.3055 60.3563 47.394 60.3024 47.4782C60.1216 47.762 59.8645 47.9891 59.5604 48.1334C59.2984 48.258 59.0105 48.3184 58.7204 48.3098C58.677 48.3098 58.6364 48.3098 58.5944 48.3028H58.5342L58.4838 48.2958L58.3858 48.2804L58.306 48.2622C58.2192 48.2427 58.1337 48.2179 58.0498 48.188C57.9353 48.1488 57.8235 48.1021 57.7152 48.048C57.5609 47.9703 57.4109 47.8843 57.2658 47.7904C57.137 47.7078 57.0194 47.628 56.9074 47.5468C56.4622 47.2262 56.0786 46.9098 55.7034 46.585C54.9572 45.9368 54.2544 45.2816 53.5698 44.6082C52.1992 43.2656 50.8902 41.8936 49.6274 40.453L50.9028 39.0964L55.3744 42.5124C56.1206 43.0724 56.8626 43.6324 57.6046 44.1392C57.9756 44.3912 58.3452 44.6432 58.6882 44.8392C58.7722 44.8882 58.8548 44.933 58.929 44.9708C58.9849 45.0005 59.0429 45.0258 59.1026 45.0464C59.1166 45.0464 59.1236 45.0464 59.1026 45.0366C59.0752 45.0247 59.0466 45.0158 59.0172 45.01L58.9808 45.0016L58.9262 44.9918L58.859 44.9834C58.832 44.9819 58.8049 44.9819 58.7778 44.9834C58.5491 44.9764 58.322 45.0245 58.1156 45.1234C58.032 45.1632 57.9519 45.2101 57.8762 45.2634C57.7948 45.3227 57.7189 45.3893 57.6494 45.4622C57.5833 45.5332 57.5238 45.61 57.4716 45.6918C57.4259 45.7631 57.3861 45.838 57.3526 45.9158C57.3037 46.0305 57.2694 46.1509 57.2504 46.2742C57.2437 46.3136 57.239 46.3533 57.2364 46.3932V46.424V46.375L57.228 46.277L57.2126 46.1566C57.2056 46.081 57.186 45.9816 57.1734 45.8934C57.1412 45.7086 57.102 45.5098 57.0544 45.3068C56.9606 44.9008 56.8444 44.4794 56.7184 44.0538C56.4734 43.1998 56.178 42.3346 55.8784 41.4666C55.5788 40.5986 55.2666 39.7292 54.9474 38.8598L53.9954 36.26L57.4912 34.8684Z" fill="#CE7A63"/>
<path d="M54.8184 31.2816C54.8184 31.2816 56.5866 31.311 57.715 33.7176C58.66 35.749 59.78 39.6312 59.78 39.6312L54.6 40.4222C54.6 40.4222 53.06 36.386 52.8808 34.3056C52.7016 32.2252 53.5052 31.5 54.8184 31.2816Z" fill="#407BFF"/>
<path d="M46.2001 40.7302C45.1585 41.9902 44.0777 43.2054 42.9619 44.401C42.4019 45.0002 41.8419 45.5896 41.2455 46.1734C41.0271 46.389 40.8059 46.606 40.5763 46.8216C40.4965 46.8972 40.4153 46.97 40.3327 47.0456C40.1731 47.1856 40.0093 47.3354 39.8315 47.4852C39.7419 47.558 39.6495 47.635 39.5515 47.7134C39.4287 47.8072 39.3011 47.8946 39.1693 47.9752C39.0425 48.0518 38.9084 48.1156 38.7689 48.1656L38.7269 48.1796L38.6709 48.1978C38.6295 48.2103 38.5874 48.2206 38.5449 48.2286C38.3976 48.2623 38.2464 48.2755 38.0955 48.2678C38.0345 48.2647 37.9737 48.2582 37.9135 48.2482C37.8743 48.2433 37.8355 48.2358 37.7973 48.2258C37.7539 48.216 37.7119 48.2048 37.6685 48.1922C37.4638 48.1249 37.2738 48.0195 37.1085 47.8814C37.0138 47.8021 36.9283 47.7124 36.8537 47.614C36.8117 47.558 36.7851 47.5146 36.7697 47.4922L36.7151 47.3984C36.6617 47.3016 36.619 47.1993 36.5877 47.0932C36.5709 47.0442 36.5653 47.019 36.5569 46.9882L36.5401 46.9C36.5289 46.8412 36.5261 46.809 36.5191 46.76C36.5121 46.711 36.5121 46.6914 36.5093 46.6564V46.571C36.5093 46.4674 36.5093 46.4044 36.5093 46.34C36.5093 46.2196 36.5261 46.1342 36.5359 46.06C36.5765 45.7534 36.6269 45.5364 36.6759 45.3096C36.7739 44.8686 36.8803 44.4626 36.9909 44.0496C37.2121 43.2404 37.4543 42.4564 37.7021 41.6696C38.2061 40.11 38.7437 38.5798 39.3597 37.0636L40.6505 37.5508C40.5735 39.1468 40.5217 40.9374 40.5203 42.8708C41.7523 41.874 43.7053 40.4334 44.9597 39.452L46.2001 40.7302Z" fill="#CE7A63"/>
<path d="M42.7281 31.5406C42.203 31.7952 41.7535 32.1825 41.4241 32.6643C41.0948 33.1462 40.8972 33.7056 40.8507 34.2874C40.7107 36.0374 40.5833 38.2466 40.5343 40.7554L37.4795 39.4198C37.4795 39.4198 38.3937 37.5046 39.8371 34.5492C41.0201 32.1244 42.6623 31.5476 42.7281 31.5406Z" fill="#407BFF"/>
<path d="M18.7602 51.5816C18.7602 51.5816 18.8484 53.7922 18.4004 54.95C18.6692 55.419 27.9778 56.9912 32.0882 53.529L31.6206 50.8004L18.7602 51.5816Z" fill="#263238"/>
<path d="M34.9133 61.46L32.0937 53.2616C32.0937 53.2616 28.2787 56.0616 18.6271 54.0876C18.6271 54.0876 16.7497 57.085 16.3871 59.8276C16.3129 60.396 16.2709 60.9476 16.2471 61.4656L34.9133 61.46Z" fill="#263238"/>
<path d="M24.1206 19.4264C24.1206 19.4264 28.5194 17.7212 30.0132 21.3276C31.2872 24.4076 28.7812 26.4082 29.2278 29.3748C29.6744 32.3414 30.086 33.5622 27.7046 35.3948C26.1016 36.6324 23.5522 31.7548 23.5522 31.7548L24.1206 19.4264Z" fill="#263238"/>
<path d="M25.1806 19.1422C25.1806 19.1422 21.1962 17.9088 19.9096 22.141C18.9072 25.4352 19.7234 27.2916 17.5492 28.2562C15.375 29.2208 14.6092 33.4278 19.6366 32.9434C24.664 32.459 24.4568 30.8224 27.0118 32.368C29.5668 33.9136 26.8802 18.9294 25.1806 19.1422Z" fill="#263238"/>
<path d="M30.8671 45.08L30.8545 45.0926C30.8769 45.5056 30.9049 45.9326 30.9385 46.3638C31.0615 47.901 31.3001 49.4266 31.6525 50.9278C31.8793 51.9078 26.5075 53.1524 22.5945 53.2364C20.4217 53.284 18.7011 52.9732 18.6283 52.0688C18.5327 51.1315 18.3394 50.2066 18.0515 49.3094C17.8625 48.6752 17.6315 48.0144 17.3879 47.3396C17.3487 47.2332 17.3095 47.1268 17.2689 47.019C17.1476 46.6952 17.0216 46.3685 16.8909 46.039C16.6235 45.3558 16.3309 44.6684 16.0509 43.9908C15.9445 43.736 15.8409 43.4868 15.7401 43.2376C14.2855 39.6956 13.2201 36.6954 14.4325 34.7074C14.6691 34.3196 15.0835 33.9276 15.5917 33.5468C17.6371 32.0166 21.2351 30.6852 21.2351 30.6852L24.7617 30.7034C24.7617 30.7034 26.1925 31.2914 27.4217 31.8822C28.8861 32.5822 29.8899 33.4376 30.2973 34.4736C30.4152 34.7811 30.5042 35.0989 30.5633 35.4228C30.5633 35.4228 31.8149 38.9088 32.3721 40.6714C32.7501 41.867 32.3721 42.9758 31.8513 43.8312C31.572 44.2837 31.2418 44.7027 30.8671 45.08Z" fill="#407BFF"/>
<path opacity="0.2" d="M31.8612 43.8312C31.5796 44.2881 31.246 44.711 30.8672 45.0912L28.6538 41.0494L31.8612 43.8312Z" fill="black"/>
<path opacity="0.2" d="M23.639 41.5898C21.9982 44.4892 20.216 47.1814 18.0516 49.315C17.8626 48.6808 17.6316 48.02 17.388 47.3452C17.3488 47.2388 17.3096 47.1324 17.269 47.0246L23.639 41.5898Z" fill="black"/>
<path d="M34.3913 43.0066C34.3535 42.9898 34.3129 42.9688 34.2681 42.945H34.2919C34.3395 42.9577 34.3863 42.9736 34.4319 42.9926C34.4809 43.0164 34.4907 43.0262 34.4907 43.0304C34.4907 43.0346 34.4403 43.0276 34.3913 43.0066Z" fill="#407BFF"/>
<path d="M35.7674 44.5564C35.7674 44.6012 35.7674 44.674 35.7548 44.7314C35.7339 44.9011 35.6906 45.0673 35.626 45.2256C35.6078 45.2676 35.5798 45.3292 35.5504 45.3824C35.521 45.4356 35.4888 45.4902 35.4552 45.542C35.3748 45.6586 35.2808 45.7653 35.1752 45.8598C35.073 45.9543 34.9597 46.0361 34.8378 46.1034C34.7317 46.1611 34.6201 46.208 34.5046 46.2434L34.4248 46.2672L34.3576 46.2826C34.3128 46.2924 34.268 46.3008 34.2176 46.3078C34.1443 46.3177 34.0704 46.3238 33.9964 46.326C33.8236 46.3292 33.6512 46.3084 33.484 46.2644C33.3954 46.2415 33.3083 46.2125 33.2236 46.1776C33.1226 46.1376 33.0244 46.0908 32.9296 46.0376C32.8073 45.9659 32.689 45.8874 32.5754 45.8024C32.4788 45.7296 32.392 45.6624 32.3108 45.5924C32.1484 45.4524 32.0042 45.3264 31.8628 45.1948C31.5828 44.9358 31.3294 44.6698 31.0774 44.408C30.8254 44.1462 30.5832 43.8816 30.348 43.6128C29.872 43.078 28.507 41.1936 28.0618 40.6252L28.7926 39.9168L28.7324 39.8342L28.1304 39.0026L27.5354 38.1626C27.1448 37.6026 26.7458 37.0356 26.3818 36.47L30.0232 33.88C30.4642 34.44 30.8632 35.0168 31.258 35.5992C31.4526 35.8918 31.65 36.183 31.8418 36.4784L32.4018 37.3716C33.141 38.5742 33.8522 39.7964 34.5018 41.0942C34.8507 41.7721 35.1625 42.4684 35.4356 43.1802C35.472 43.2852 35.5084 43.379 35.5462 43.4924L35.6022 43.666L35.6302 43.757C35.647 43.8088 35.6652 43.8676 35.6834 43.9376C35.7075 44.0273 35.7257 44.1185 35.738 44.2106C35.7484 44.2788 35.755 44.3475 35.7576 44.4164C35.7674 44.4612 35.7688 44.5088 35.7674 44.5564Z" fill="#407BFF"/>
<path opacity="0.2" d="M29.8438 38.808L33.7399 42.28C33.7399 42.28 32.1299 39.9924 29.8438 38.808Z" fill="black"/>
<path d="M23.4962 32.9364C23.5494 32.9518 23.6026 32.963 23.6544 32.9742C24.5126 33.138 25.1818 32.2924 24.9046 31.4636C24.7982 31.1179 24.7982 30.7482 24.9046 30.4024C25.0063 30.0458 25.1506 29.7026 25.3344 29.3804L24.9382 28.8134L22.834 26.222C22.7374 27.804 22.295 30.0622 20.979 30.7972C20.979 30.7972 21.259 31.759 22.8382 32.683C23.0491 32.788 23.2694 32.8728 23.4962 32.9364Z" fill="#FF8B7B"/>
<g opacity="0.2">
<path d="M24.9076 30.4024C25.0093 30.0457 25.1536 29.7026 25.3374 29.3804L24.9412 28.8134L23.6392 28.5194C23.6392 28.5194 24.0018 29.9082 24.9076 30.4024Z" fill="black"/>
</g>
<path d="M22.4085 23.4122C22.2461 26.012 22.2279 26.6812 23.3423 28.1638C25.0223 30.3926 28.0827 30.4402 29.0039 27.9384C29.8341 25.6872 29.9601 21.8134 27.6039 20.482C25.2869 19.1688 22.5639 20.8124 22.4029 23.4122" fill="#FF8B7B"/>
<path d="M27.4402 20.2818C27.4402 20.2818 28.1122 22.4168 25.4228 22.6352C22.7334 22.8536 23.5398 24.7058 22.5304 24.486C21.521 24.2662 21.6904 21.9408 23.2304 20.7522C24.3056 19.929 25.5838 19.2892 27.4402 20.2818Z" fill="#263238"/>
<path d="M27.4961 27.3364C27.3009 27.3382 27.11 27.279 26.9501 27.167C26.6826 26.9761 26.5002 26.6883 26.4419 26.3648C26.4419 26.347 26.449 26.3299 26.4616 26.3173C26.4742 26.3047 26.4913 26.2976 26.5091 26.2976C26.5268 26.298 26.5437 26.3052 26.5562 26.3177C26.5687 26.3302 26.5759 26.3471 26.5763 26.3648C26.6359 26.6428 26.7959 26.889 27.0257 27.0564C27.1523 27.1404 27.2982 27.1906 27.4496 27.2023C27.601 27.2141 27.7529 27.187 27.8909 27.1236C27.9076 27.1173 27.9261 27.1179 27.9424 27.1252C27.9587 27.1326 27.9714 27.1461 27.9777 27.1628C27.984 27.1795 27.9834 27.198 27.9761 27.2143C27.9687 27.2306 27.9552 27.2433 27.9385 27.2496C27.7974 27.3049 27.6476 27.3343 27.4961 27.3364Z" fill="#263238"/>
<path d="M26.2093 24.4244C26.1841 24.6344 26.2737 24.8178 26.4109 24.836C26.5481 24.8542 26.6811 24.696 26.7063 24.486C26.7315 24.276 26.6419 24.0912 26.5047 24.0744C26.3675 24.0576 26.2345 24.2144 26.2093 24.4244Z" fill="#263238"/>
<path d="M28.3934 24.7492C28.3682 24.9592 28.4578 25.144 28.5964 25.1608C28.735 25.1776 28.8652 25.0208 28.8918 24.8108C28.9184 24.6008 28.8274 24.416 28.6888 24.3992C28.5502 24.3824 28.42 24.5392 28.3934 24.7492Z" fill="#263238"/>
<path d="M28.6274 24.4034L29.1496 24.3208C29.1496 24.3208 28.843 24.6834 28.6274 24.4034Z" fill="#263238"/>
<path d="M28.0531 24.78C28.0531 24.78 28.3471 25.3806 28.6803 25.9126C28.7064 25.9527 28.7229 25.9982 28.7289 26.0456C28.7348 26.0931 28.7299 26.1412 28.7145 26.1865C28.6992 26.2318 28.6738 26.273 28.6402 26.307C28.6066 26.3411 28.5658 26.367 28.5207 26.383C28.2998 26.4547 28.0716 26.5017 27.8403 26.523L28.0531 24.78Z" fill="#FF5652"/>
<path d="M25.6018 23.2708C25.6153 23.2609 25.6307 23.2539 25.6471 23.2502C25.6635 23.2466 25.6805 23.2465 25.697 23.2498C25.8496 23.2831 26.0079 23.2797 26.1591 23.2401C26.3102 23.2004 26.4497 23.1256 26.5664 23.0216C26.5773 23.0084 26.5908 22.9976 26.6061 22.9899C26.6214 22.9822 26.6381 22.9777 26.6552 22.9767C26.6723 22.9757 26.6895 22.9783 26.7055 22.9842C26.7216 22.9902 26.7363 22.9994 26.7486 23.0113C26.761 23.0231 26.7708 23.0374 26.7773 23.0532C26.7839 23.0691 26.7872 23.0861 26.7869 23.1032C26.7866 23.1203 26.7828 23.1372 26.7757 23.1528C26.7686 23.1684 26.7583 23.1824 26.7456 23.1938C26.6003 23.3277 26.4251 23.4247 26.2346 23.4769C26.0441 23.529 25.8439 23.5347 25.6508 23.4934C25.6195 23.4873 25.5918 23.4693 25.5735 23.4432C25.5553 23.4171 25.5478 23.3849 25.5528 23.3534C25.5584 23.3223 25.576 23.2946 25.6018 23.2764" fill="#263238"/>
<path d="M29.6508 23.7105C29.6692 23.7366 29.6781 23.7682 29.676 23.8001C29.6741 23.8165 29.669 23.8324 29.6609 23.8469C29.6528 23.8614 29.642 23.8741 29.629 23.8844C29.616 23.8947 29.6011 23.9023 29.5851 23.9068C29.5692 23.9113 29.5525 23.9126 29.536 23.9107C29.3392 23.8941 29.1493 23.8305 28.9821 23.7253C28.815 23.62 28.6756 23.4762 28.5756 23.3059C28.5668 23.2912 28.561 23.2749 28.5587 23.258C28.5564 23.241 28.5577 23.2238 28.5623 23.2073C28.567 23.1909 28.575 23.1755 28.5859 23.1623C28.5967 23.1491 28.6102 23.1382 28.6254 23.1304C28.6406 23.1226 28.6573 23.118 28.6743 23.1169C28.6914 23.1159 28.7085 23.1183 28.7246 23.1241C28.7407 23.13 28.7554 23.139 28.7678 23.1508C28.7803 23.1625 28.7901 23.1767 28.7968 23.1925C28.8777 23.3263 28.9894 23.4388 29.1226 23.5206C29.2559 23.6024 29.4067 23.6512 29.5626 23.6629C29.5793 23.6648 29.5954 23.67 29.6101 23.6781C29.6247 23.6863 29.6376 23.6973 29.648 23.7105" fill="#263238"/>
<path d="M26.4434 24.08L26.9656 23.996C26.9656 23.996 26.6576 24.3586 26.4434 24.08Z" fill="#263238"/>
<path d="M21.0366 24.6232C21.1057 24.85 21.2221 25.0595 21.3779 25.238C21.5338 25.4166 21.7257 25.5601 21.941 25.6592C22.501 25.8902 22.858 25.2952 22.781 24.6372C22.7068 24.045 22.3288 23.2106 21.738 23.2652C21.1472 23.3198 20.8476 24.0254 21.038 24.6232" fill="#FF8B7B"/>
<path d="M24.2202 37.1322C23.9766 36.5232 24.6402 35.9352 25.2296 36.2264C25.4113 36.3148 25.5811 36.4258 25.735 36.5568C25.3864 36.2908 24.8376 35.868 24.986 35.6818C25.2548 35.343 27.0762 36.4616 27.8602 37.0468C27.3338 36.3888 27.4192 35.266 27.73 35.6944C28.087 36.197 28.5952 36.7836 29.3316 37.6992C30.1478 38.7072 29.5906 39.7082 29.3316 40.0792C29.2702 40.1671 29.1962 40.2454 29.1118 40.3116C27.8756 41.2692 27.058 40.4726 26.33 39.9224C25.602 39.3722 24.0578 38.2424 24.23 37.7678C24.2972 37.5872 24.7676 37.9078 25.07 38.1262C24.7307 37.8646 24.449 37.5357 24.2426 37.1602C24.2344 37.1515 24.2269 37.1421 24.2202 37.1322Z" fill="#FF8B7B"/>
<path d="M27.3072 38.9116C27.2988 38.92 27.2876 38.927 27.2792 38.934L27.3086 38.913C27.6166 38.703 28.0688 38.4258 28.129 38.6022C28.1295 38.6064 28.1295 38.6106 28.129 38.6148C28.1413 38.6745 28.1349 38.7366 28.1108 38.7926C27.9708 39.1972 27.1714 39.8146 26.505 40.2976C26.3034 40.446 26.113 40.5776 25.9548 40.691C25.1904 41.2328 23.9948 41.8936 23.054 40.7288C23.054 40.7288 21.9508 39.6172 23.0176 38.3782C23.4796 37.8378 23.8576 37.415 24.1628 37.0566C24.3602 36.8256 24.5296 36.6212 24.6752 36.4294C24.7368 36.3468 24.7914 36.3244 24.8292 36.3468C24.8552 36.3618 24.8743 36.3864 24.8824 36.4154C24.9158 36.5207 24.9258 36.632 24.9118 36.7416C24.8936 36.9615 24.8387 37.1768 24.7494 37.3786C24.6866 37.5225 24.6031 37.6564 24.5016 37.7762L24.629 37.6894L24.7396 37.6166C25.2031 37.3126 25.6841 37.0363 26.1802 36.7892C26.3732 36.6925 26.5714 36.6065 26.7738 36.5316C27.0972 36.4168 27.345 36.3832 27.4262 36.4952C27.4836 36.5722 27.4262 36.687 27.3114 36.8102C27.1671 36.9573 27.0097 37.0909 26.841 37.2092C26.9451 37.1426 27.0536 37.0832 27.1658 37.0314C27.3329 36.9538 27.5235 36.9437 27.6978 37.0034C27.7361 37.0383 27.7613 37.0852 27.7692 37.1364C27.7797 37.2565 27.7453 37.3762 27.6726 37.4724C27.8784 37.3758 28.045 37.3674 28.1458 37.4556C28.1576 37.4662 28.1684 37.4779 28.178 37.4906C28.2257 37.6488 28.2142 37.819 28.1458 37.9694C28.1458 37.9778 28.1458 37.9862 28.136 37.996C28.1128 38.044 28.0871 38.0907 28.059 38.136C28.0184 38.1948 27.9708 38.2578 27.919 38.3194L27.8574 38.3922C27.8499 38.4031 27.8414 38.4134 27.8322 38.423C27.6724 38.6015 27.4967 38.765 27.3072 38.9116Z" fill="#FF8B7B"/>
<g opacity="0.2">
<path d="M24.6781 37.7244C24.6724 37.7242 24.6668 37.7228 24.6617 37.7201C24.6566 37.7174 24.6521 37.7136 24.6487 37.709C24.6416 37.7009 24.6377 37.6904 24.6377 37.6796C24.6377 37.6688 24.6416 37.6584 24.6487 37.6502C24.7299 37.5242 25.0071 36.6492 24.9287 36.4392C24.9189 36.414 24.9077 36.4112 24.9049 36.4098C24.7649 36.3748 24.4163 36.785 24.2259 37.0524C24.2236 37.0574 24.2203 37.0618 24.2161 37.0654C24.2119 37.0689 24.207 37.0715 24.2017 37.073C24.1964 37.0745 24.1909 37.0748 24.1854 37.0739C24.18 37.073 24.1749 37.0709 24.1703 37.0678C24.1658 37.0647 24.162 37.0607 24.1591 37.056C24.1563 37.0512 24.1546 37.046 24.154 37.0405C24.1534 37.035 24.1541 37.0295 24.1559 37.0243C24.1576 37.0191 24.1605 37.0144 24.1643 37.0104C24.2525 36.8872 24.7005 36.2796 24.9231 36.3384C24.9407 36.3432 24.9567 36.3524 24.9697 36.3651C24.9827 36.3779 24.9922 36.3937 24.9973 36.4112C25.0827 36.6296 24.8573 37.3702 24.7495 37.6208C24.8545 37.5676 25.0589 37.4458 25.2731 37.3184C25.6763 37.079 26.2265 36.7584 26.7263 36.5022C26.7306 36.5001 26.7353 36.4988 26.7402 36.4985C26.745 36.4982 26.7498 36.4988 26.7543 36.5004C26.7589 36.5019 26.7631 36.5044 26.7667 36.5076C26.7703 36.5108 26.7732 36.5147 26.7753 36.519C26.7777 36.5232 26.7792 36.5278 26.7797 36.5326C26.7803 36.5374 26.7798 36.5423 26.7783 36.5469C26.7769 36.5515 26.7745 36.5557 26.7713 36.5594C26.7682 36.563 26.7643 36.5659 26.7599 36.568C26.2615 36.8172 25.7127 37.1448 25.3109 37.3828C24.8447 37.66 24.7243 37.7244 24.6781 37.7244Z" fill="black"/>
</g>
<g opacity="0.2">
<path d="M28.2255 38.6302C28.2829 38.8836 27.6654 39.5094 26.698 40.2094L26.6351 40.1632C27.5563 39.5052 27.9888 39.0432 28.1134 38.7926C28.1414 38.7514 28.1556 38.7024 28.1541 38.6526C28.1496 38.6404 28.1419 38.6298 28.1317 38.6218L28.098 38.6106C27.8264 38.5686 27.3644 38.9228 27.3589 38.9256C27.3519 38.9318 27.3429 38.9352 27.3337 38.9352C27.3244 38.9352 27.3154 38.9318 27.3084 38.9256C27.3024 38.9189 27.299 38.9102 27.299 38.9011C27.299 38.892 27.3024 38.8833 27.3084 38.8766C27.3084 38.8766 27.9412 38.262 28.0826 37.9526C28.1708 37.7566 28.1764 37.5956 28.0938 37.5242C28.0112 37.4528 27.7929 37.485 27.5549 37.6362L26.7149 38.2326C26.7087 38.237 26.7014 38.2394 26.6939 38.2396C26.6879 38.2396 26.682 38.2381 26.6767 38.2355C26.6713 38.2328 26.6667 38.229 26.663 38.2242C26.6601 38.2203 26.658 38.2158 26.6568 38.2111C26.6556 38.2063 26.6554 38.2014 26.6562 38.1965C26.657 38.1917 26.6588 38.1871 26.6614 38.1829C26.664 38.1788 26.6674 38.1752 26.6714 38.1724L27.5184 37.5746C27.5506 37.5354 27.7298 37.324 27.6976 37.163C27.6905 37.1314 27.6756 37.1021 27.6544 37.0777C27.6331 37.0533 27.6061 37.0345 27.5759 37.023C27.4009 36.939 27.0382 37.1252 26.7526 37.303C26.6434 37.3856 26.5314 37.4654 26.4306 37.5354C26.4227 37.5406 26.4131 37.5426 26.4038 37.541C26.3945 37.5395 26.3861 37.5345 26.3802 37.527C26.3737 37.5202 26.3701 37.5112 26.3701 37.5018C26.3701 37.4924 26.3737 37.4834 26.3802 37.4766C26.4849 37.3931 26.5937 37.3151 26.7064 37.2428C26.9864 37.03 27.2566 36.8228 27.2664 36.8228C27.2696 36.8197 27.2733 36.8172 27.2774 36.8155C27.2814 36.8138 27.2858 36.8129 27.2902 36.8129C27.2947 36.8129 27.2991 36.8138 27.3031 36.8155C27.3072 36.8172 27.3109 36.8197 27.3141 36.8228C27.3177 36.8261 27.3205 36.8301 27.3225 36.8346C27.3245 36.839 27.3255 36.8438 27.3255 36.8487C27.3255 36.8536 27.3245 36.8584 27.3225 36.8629C27.3205 36.8673 27.3177 36.8713 27.3141 36.8746C27.3141 36.8746 27.2482 36.9292 27.1502 37.0048C27.2197 36.966 27.2963 36.9415 27.3753 36.9326C27.4544 36.9237 27.5345 36.9306 27.6109 36.953C27.6443 36.9679 27.675 36.9883 27.7018 37.0132C27.7401 37.0481 27.7653 37.095 27.7733 37.1462C27.7837 37.2663 27.7493 37.386 27.6767 37.4822C27.8825 37.3856 28.0491 37.3772 28.1499 37.4654C28.1617 37.476 28.1725 37.4877 28.1821 37.5004C28.2605 37.6026 28.2521 37.7734 28.1583 37.9806C28.1307 38.0366 28.0988 38.0904 28.063 38.1416C28.0224 38.2004 27.9748 38.2634 27.923 38.325L27.8614 38.3978C27.8539 38.4087 27.8455 38.419 27.8363 38.4286C27.7607 38.5168 27.6808 38.605 27.608 38.6806C27.7591 38.5841 27.9357 38.5353 28.1149 38.5406C28.1399 38.5434 28.1637 38.5533 28.1833 38.5692C28.2029 38.5851 28.2175 38.6062 28.2255 38.6302Z" fill="black"/>
</g>
<path d="M23.9625 41.5604C22.6619 43.1508 21.3025 44.6516 19.8437 46.1146C19.1171 46.8482 18.3639 47.558 17.5463 48.258C17.1162 48.6286 16.6652 48.974 16.1953 49.2926C15.9016 49.4924 15.591 49.6662 15.2671 49.812C15.1635 49.8568 15.0515 49.9002 14.9185 49.9436C14.7533 49.9967 14.5837 50.0347 14.4117 50.057C14.1091 50.0975 13.8015 50.0789 13.5059 50.0024C13.3963 49.9741 13.2891 49.9372 13.1853 49.8918C13.0647 49.839 12.9494 49.7747 12.8409 49.7L12.7569 49.6426L12.7163 49.6118C12.6869 49.5894 12.6393 49.5488 12.6029 49.5166C12.5263 49.4476 12.4551 49.3727 12.3901 49.2926C12.345 49.2376 12.3029 49.1801 12.2641 49.1204C12.1651 48.9686 12.0856 48.8049 12.0275 48.6332L12.0023 48.5506L11.9827 48.4834L11.9659 48.4148L11.9533 48.363L11.9337 48.2636L11.9211 48.181L11.9043 48.041L11.8945 47.929C11.8847 47.789 11.8833 47.684 11.8833 47.5874C11.8833 47.3956 11.8931 47.2346 11.9029 47.082C11.9225 46.7768 11.9491 46.501 11.9785 46.2294C12.0387 45.6876 12.1087 45.171 12.1843 44.6558C12.3481 43.6324 12.5161 42.6244 12.7149 41.6248C13.1013 39.62 13.5339 37.66 14.0561 35.6846L18.2491 36.6982C17.8291 38.6414 17.3643 40.593 16.9065 42.5264C16.7385 43.26 16.5593 43.9908 16.3941 44.716C16.8435 44.3912 17.2943 44.0538 17.7451 43.7164C19.3201 42.525 20.8881 41.2706 22.4603 40.04L23.9625 41.5604Z" fill="#407BFF"/>
<path opacity="0.2" d="M17.92 37.709L16.646 44.5312L21.966 40.4712C21.966 40.4712 17.997 43.2712 17.4524 43.1928C17.1052 43.1438 17.92 37.709 17.92 37.709Z" fill="black"/>
</g>
<defs>
<clipPath id="clip0_111_1269">
<rect width="70" height="70" rx="35" fill="white"/>
</clipPath>
</defs>
</svg>
